<?xml version="1.0" encoding="UTF-8"?>
<!DOCTYPE svg PUBLIC "-//W3C//DTD SVG 1.1//EN" "http://www.w3.org/Graphics/SVG/1.1/DTD/svg11.dtd">
<!-- Creator: CorelDRAW (Versão de avaliação) -->
<svg xmlns="http://www.w3.org/2000/svg" xml:space="preserve" width="250px" height="110px" version="1.1" style="shape-rendering:geometricPrecision; text-rendering:geometricPrecision; image-rendering:optimizeQuality; fill-rule:evenodd; clip-rule:evenodd"
viewBox="0 0 250 110"
 xmlns:xlink="http://www.w3.org/1999/xlink"
 xmlns:xodm="http://www.corel.com/coreldraw/odm/2003">
 <defs>
  <style type="text/css">
   <![CDATA[
    .fil1 {fill:#363334}
    .fil0 {fill:#363334;fill-rule:nonzero}
   ]]>
  </style>
 </defs>
 <g id="Camada_x0020_1">
  <metadata id="CorelCorpID_0Corel-Layer"/>
  <g id="_536397144">
   <path class="fil0" d="M2.5 94.185l7.125 0c5.353,0 8.863,-3.615 8.863,-8.377 0,-5.213 -4.309,-8.654 -9.662,-8.654l-6.326 0 0 17.031zm6.326 -15.849c3.615,0 6.326,2.78 6.326,7.507 0,4.379 -2.398,7.16 -5.527,7.16l-3.892 0 0 -14.667 3.093 0zm26.554 15.849l3.615 0 -8.585 -17.031 -1.703 0 -7.925 17.031 1.599 0 2.259 -4.762 8.376 0 2.364 4.762zm-6.569 -13.381l3.649 7.437 -7.229 0 3.58 -7.437zm14.945 0.938l12.686 12.443 1.217 0 0 -17.031 -1.217 0 0 12.443 -12.686 -12.443 -1.216 0 0 17.031 1.216 0 0 -12.443zm19.36 12.443l3.232 0 0 -17.031 -3.232 0 0 17.031zm8.654 0l13.208 0 0 -1.182 -9.976 0 0 -6.917 8.933 0 0 -1.182 -8.933 0 0 -6.568 9.732 0 0 -1.182 -12.964 0 0 17.031zm17.552 0l12.339 0 0 -1.182 -9.106 0 0 -15.849 -3.233 0 0 17.031zm37.955 0l3.615 0 -8.585 -17.031 -1.704 0 -7.924 17.031 1.599 0 2.259 -4.762 8.376 0 2.364 4.762zm-6.569 -13.381l3.649 7.437 -7.229 0 3.58 -7.437zm14.945 0.938l12.686 12.443 1.217 0 0 -17.031 -1.217 0 0 12.443 -12.686 -12.443 -1.217 0 0 17.031 1.217 0 0 -12.443zm19.359 12.443l7.126 0c5.352,0 8.862,-3.615 8.862,-8.377 0,-5.213 -4.31,-8.654 -9.662,-8.654l-6.326 0 0 17.031zm6.326 -15.849c3.615,0 6.326,2.78 6.326,7.507 0,4.379 -2.398,7.16 -5.526,7.16l-3.893 0 0 -14.667 3.093 0zm14.111 15.849l3.233 0 0 -7.438 2.641 0 5.352 7.438 3.442 0 -5.457 -7.682c2.676,-0.625 4.344,-2.224 4.344,-4.553 0,-2.988 -2.78,-4.796 -6.951,-4.796l-6.604 0 0 17.031zm5.77 -15.849c2.676,0 4.483,1.251 4.483,3.614 0,2.433 -1.772,3.615 -4.448,3.615l-2.572 0 0 -7.229 2.537 0zm25.477 15.849l3.614 0 -8.584 -17.031 -1.704 0 -7.924 17.031 1.598 0 2.26 -4.762 8.376 0 2.364 4.762zm-6.57 -13.381l3.65 7.437 -7.23 0 3.58 -7.437zm13.729 13.381l7.125 0c5.353,0 8.863,-3.615 8.863,-8.377 0,-5.213 -4.309,-8.654 -9.662,-8.654l-6.326 0 0 17.031zm6.326 -15.849c3.615,0 6.326,2.78 6.326,7.507 0,4.379 -2.399,7.16 -5.527,7.16l-3.892 0 0 -14.667 3.093 0zm14.111 15.849l13.208 0 0 -1.182 -9.975 0 0 -6.917 8.932 0 0 -1.182 -8.932 0 0 -6.568 9.731 0 0 -1.182 -12.964 0 0 17.031z"/>
   <path class="fil0" d="M92.252 14.001l0 -12.915 23.457 0c6.453,0 12.317,2.639 16.568,6.89 2.147,2.147 3.883,4.707 5.075,7.546 -1.114,-0.352 -2.253,-0.623 -3.407,-0.812l-0.754 -0.123c-0.897,-1.563 -1.997,-2.996 -3.263,-4.263 -3.65,-3.649 -8.683,-5.915 -14.219,-5.915l-20.134 0 0 9.592 -3.323 0zm48.31 44.987l9.593 0 0 -20.134c0,-5.536 -2.266,-10.569 -5.916,-14.219 -1.562,-1.562 -3.377,-2.87 -5.377,-3.856 0.2,1.226 0.304,2.483 0.304,3.764 0,6.452 -2.639,12.316 -6.889,16.567 -4.251,4.251 -10.115,6.889 -16.568,6.889l-5.823 0 0 10.989 20.25 0 0 3.322 -23.573 0 0 -14.311 -14.311 0 0 -23.572 3.323 0 0 20.25 20.134 0c5.536,0 10.569,-2.266 14.219,-5.916 3.65,-3.65 5.915,-8.683 5.915,-14.218 0,-1.779 -0.233,-3.505 -0.672,-5.151 -1.646,-0.438 -3.372,-0.672 -5.151,-0.672 -5.535,0 -10.569,2.265 -14.218,5.915 -3.65,3.65 -5.916,8.683 -5.916,14.219l0 4.819 -3.323 0 0 -4.819c0,-6.452 2.639,-12.317 6.89,-16.568 4.25,-4.25 10.115,-6.889 16.567,-6.889 6.453,0 12.317,2.639 16.568,6.889 4.251,4.251 6.889,10.116 6.889,16.568l0 23.456 -12.915 0 0 -3.322z"/>
   <path class="fil0" d="M42.593 106.687l-1.322 -2.966 -1.329 2.966 2.651 0zm-1.621 -3.73l0.615 0 2.651 5.858 -0.707 0 -0.681 -1.537 -3.166 0 -0.69 1.537 -0.673 0 2.651 -5.858zm55.138 0.041l4.205 0 0 0.59 -3.549 0 0 2.003 3.175 0 0 0.59 -3.175 0 0 2.044 3.59 0 0 0.59 -4.246 0 0 -5.817zm11.343 5.917c-0.421,0 -0.809,-0.078 -1.163,-0.233 -0.355,-0.155 -0.662,-0.367 -0.923,-0.636 -0.26,-0.269 -0.464,-0.586 -0.611,-0.951 -0.146,-0.366 -0.22,-0.756 -0.22,-1.172l0 -0.016c0,-0.411 0.074,-0.798 0.22,-1.164 0.147,-0.366 0.351,-0.685 0.611,-0.96 0.261,-0.274 0.571,-0.49 0.931,-0.648 0.36,-0.158 0.753,-0.237 1.18,-0.237 0.266,0 0.505,0.022 0.719,0.067 0.213,0.044 0.411,0.107 0.594,0.187 0.183,0.08 0.352,0.177 0.507,0.291 0.155,0.113 0.305,0.239 0.449,0.378l-0.449 0.482c-0.25,-0.233 -0.517,-0.424 -0.802,-0.574 -0.285,-0.149 -0.627,-0.224 -1.026,-0.224 -0.321,0 -0.619,0.061 -0.894,0.183 -0.274,0.122 -0.512,0.291 -0.714,0.506 -0.203,0.217 -0.36,0.47 -0.474,0.761 -0.114,0.291 -0.17,0.602 -0.17,0.935l0 0.017c0,0.337 0.056,0.652 0.17,0.943 0.114,0.291 0.271,0.544 0.474,0.76 0.202,0.216 0.44,0.386 0.714,0.511 0.275,0.125 0.573,0.187 0.894,0.187 0.399,0 0.742,-0.073 1.03,-0.22 0.288,-0.147 0.571,-0.353 0.848,-0.619l0.432 0.424c-0.149,0.155 -0.306,0.295 -0.47,0.419 -0.163,0.125 -0.339,0.232 -0.527,0.32 -0.189,0.089 -0.391,0.158 -0.607,0.208 -0.216,0.05 -0.457,0.075 -0.723,0.075zm65.658 -0.017c-0.437,0 -0.8,-0.097 -1.088,-0.291 -0.288,-0.194 -0.524,-0.44 -0.707,-0.739l0.474 -0.408c0.177,0.272 0.367,0.478 0.569,0.619 0.203,0.142 0.456,0.212 0.761,0.212 0.327,0 0.598,-0.117 0.814,-0.353 0.216,-0.235 0.324,-0.583 0.324,-1.043l0 -3.897 0.657 0 0 3.889c0,0.344 -0.048,0.643 -0.14,0.898 -0.093,0.254 -0.222,0.465 -0.385,0.631 -0.331,0.321 -0.758,0.482 -1.279,0.482zm16.596 -7.62l0.664 0.307 -0.938 0.889 -0.515 0 0.789 -1.196zm-0.856 1.72l0.656 0 0 5.817 -0.656 0 0 -5.817zm-141.447 5.21c0.366,0 0.698,-0.058 0.997,-0.174 0.299,-0.117 0.553,-0.277 0.761,-0.482 0.208,-0.205 0.368,-0.448 0.482,-0.727 0.114,-0.28 0.17,-0.581 0.17,-0.902l0 -0.016c0,-0.322 -0.056,-0.623 -0.17,-0.902 -0.114,-0.28 -0.274,-0.524 -0.482,-0.732 -0.208,-0.207 -0.462,-0.371 -0.761,-0.49 -0.299,-0.119 -0.631,-0.178 -0.997,-0.178l-1.363 0 0 4.603 1.363 0zm-2.019 -5.21l2.019 0c0.454,0 0.871,0.074 1.251,0.22 0.379,0.147 0.706,0.351 0.98,0.611 0.275,0.26 0.486,0.567 0.636,0.918 0.15,0.352 0.225,0.733 0.225,1.143l0 0.017c0,0.409 -0.075,0.792 -0.225,1.146 -0.15,0.355 -0.361,0.662 -0.636,0.923 -0.274,0.26 -0.601,0.465 -0.98,0.614 -0.38,0.15 -0.797,0.225 -1.251,0.225l-2.019 0 0 -5.817zm6 0l0.731 0 2.069 5.011 2.078 -5.011 0.706 0 -2.501 5.858 -0.582 0 -2.501 -5.858zm9.448 5.31c0.333,0 0.639,-0.062 0.919,-0.187 0.28,-0.125 0.519,-0.295 0.718,-0.511 0.2,-0.216 0.356,-0.468 0.47,-0.756 0.114,-0.288 0.171,-0.599 0.171,-0.931l0 -0.016c0,-0.333 -0.057,-0.644 -0.171,-0.935 -0.114,-0.291 -0.273,-0.545 -0.478,-0.761 -0.205,-0.216 -0.447,-0.388 -0.727,-0.515 -0.28,-0.127 -0.586,-0.191 -0.918,-0.191 -0.333,0 -0.639,0.062 -0.919,0.187 -0.279,0.124 -0.519,0.295 -0.719,0.511 -0.199,0.216 -0.355,0.468 -0.469,0.756 -0.113,0.288 -0.17,0.598 -0.17,0.931l0 0.017c0,0.332 0.057,0.644 0.17,0.934 0.114,0.291 0.273,0.545 0.478,0.761 0.205,0.216 0.447,0.387 0.727,0.515 0.28,0.127 0.586,0.191 0.918,0.191zm-0.016 0.607c-0.444,0 -0.846,-0.08 -1.209,-0.241 -0.363,-0.161 -0.675,-0.378 -0.935,-0.653 -0.261,-0.274 -0.461,-0.592 -0.603,-0.955 -0.141,-0.363 -0.212,-0.744 -0.212,-1.143l0 -0.016c0,-0.399 0.072,-0.782 0.216,-1.148 0.144,-0.365 0.347,-0.685 0.607,-0.959 0.26,-0.274 0.573,-0.493 0.939,-0.657 0.366,-0.163 0.77,-0.245 1.213,-0.245 0.443,0 0.847,0.081 1.209,0.241 0.363,0.161 0.675,0.378 0.936,0.653 0.26,0.274 0.461,0.592 0.602,0.955 0.141,0.363 0.212,0.744 0.212,1.143 0.005,0.006 0.005,0.011 0,0.017 0,0.398 -0.072,0.78 -0.216,1.146 -0.144,0.366 -0.347,0.686 -0.607,0.96 -0.26,0.274 -0.573,0.493 -0.939,0.656 -0.365,0.164 -0.77,0.246 -1.213,0.246zm7.022 0c-0.421,0 -0.809,-0.078 -1.164,-0.233 -0.354,-0.155 -0.662,-0.367 -0.922,-0.636 -0.261,-0.269 -0.464,-0.586 -0.611,-0.951 -0.147,-0.366 -0.22,-0.756 -0.22,-1.172l0 -0.016c0,-0.411 0.073,-0.798 0.22,-1.164 0.147,-0.366 0.35,-0.685 0.611,-0.96 0.26,-0.274 0.571,-0.49 0.931,-0.648 0.36,-0.158 0.753,-0.237 1.18,-0.237 0.266,0 0.505,0.022 0.719,0.067 0.213,0.044 0.411,0.107 0.594,0.187 0.183,0.08 0.352,0.177 0.507,0.291 0.155,0.113 0.304,0.239 0.449,0.378l-0.449 0.482c-0.25,-0.233 -0.517,-0.424 -0.802,-0.574 -0.286,-0.149 -0.628,-0.224 -1.027,-0.224 -0.321,0 -0.619,0.061 -0.893,0.183 -0.274,0.122 -0.513,0.291 -0.715,0.506 -0.202,0.217 -0.36,0.47 -0.473,0.761 -0.114,0.291 -0.17,0.602 -0.17,0.935l0 0.017c0,0.337 0.056,0.652 0.17,0.943 0.113,0.291 0.271,0.544 0.473,0.76 0.202,0.216 0.441,0.386 0.715,0.511 0.274,0.125 0.572,0.187 0.893,0.187 0.399,0 0.743,-0.073 1.031,-0.22 0.288,-0.147 0.57,-0.353 0.847,-0.619l0.432 0.424c-0.149,0.155 -0.305,0.295 -0.469,0.419 -0.163,0.125 -0.339,0.232 -0.528,0.32 -0.188,0.089 -0.39,0.158 -0.606,0.208 -0.216,0.05 -0.458,0.075 -0.723,0.075zm7.246 -2.228l-1.321 -2.966 -1.33 2.966 2.651 0zm-1.62 -3.73l0.615 0 2.65 5.858 -0.706 0 -0.681 -1.537 -3.166 0 -0.69 1.537 -0.673 0 2.651 -5.858zm7.071 5.958c-0.42,0 -0.808,-0.078 -1.163,-0.233 -0.354,-0.155 -0.662,-0.367 -0.922,-0.636 -0.26,-0.269 -0.464,-0.586 -0.611,-0.951 -0.147,-0.366 -0.22,-0.756 -0.22,-1.172l0 -0.016c0,-0.411 0.073,-0.798 0.22,-1.164 0.147,-0.366 0.351,-0.685 0.611,-0.96 0.26,-0.274 0.57,-0.49 0.93,-0.648 0.361,-0.158 0.754,-0.237 1.18,-0.237 0.267,0 0.506,0.022 0.719,0.067 0.214,0.044 0.412,0.107 0.595,0.187 0.182,0.08 0.351,0.177 0.506,0.291 0.156,0.113 0.305,0.239 0.449,0.378l-0.449 0.482c-0.249,-0.233 -0.516,-0.424 -0.801,-0.574 -0.286,-0.149 -0.628,-0.224 -1.027,-0.224 -0.321,0 -0.619,0.061 -0.893,0.183 -0.274,0.122 -0.512,0.291 -0.715,0.506 -0.202,0.217 -0.36,0.47 -0.473,0.761 -0.114,0.291 -0.171,0.602 -0.171,0.935l0 0.017c0,0.337 0.057,0.652 0.171,0.943 0.113,0.291 0.271,0.544 0.473,0.76 0.203,0.216 0.441,0.386 0.715,0.511 0.274,0.125 0.572,0.187 0.893,0.187 0.399,0 0.742,-0.073 1.031,-0.22 0.288,-0.147 0.57,-0.353 0.848,-0.619l0.432 0.424c-0.15,0.155 -0.307,0.295 -0.47,0.419 -0.164,0.125 -0.339,0.232 -0.528,0.32 -0.188,0.089 -0.39,0.158 -0.606,0.208 -0.216,0.05 -0.457,0.075 -0.724,0.075zm3.532 -5.917l0.657 0 0 5.817 -0.657 0 0 -5.817zm6.133 3.689l-1.321 -2.966 -1.329 2.966 2.65 0zm-1.62 -3.73l0.615 0 2.651 5.858 -0.707 0 -0.681 -1.537 -3.166 0 -0.69 1.537 -0.673 0 2.651 -5.858zm25.063 5.351c0.333,0 0.638,-0.062 0.918,-0.187 0.28,-0.125 0.52,-0.295 0.719,-0.511 0.2,-0.216 0.356,-0.468 0.47,-0.756 0.113,-0.288 0.17,-0.599 0.17,-0.931l0 -0.016c0,-0.333 -0.057,-0.644 -0.17,-0.935 -0.114,-0.291 -0.273,-0.545 -0.478,-0.761 -0.205,-0.216 -0.447,-0.388 -0.727,-0.515 -0.28,-0.127 -0.586,-0.191 -0.919,-0.191 -0.332,0 -0.638,0.062 -0.918,0.187 -0.28,0.124 -0.519,0.295 -0.719,0.511 -0.199,0.216 -0.356,0.468 -0.469,0.756 -0.114,0.288 -0.17,0.598 -0.17,0.931l0 0.017c0,0.332 0.056,0.644 0.17,0.934 0.113,0.291 0.273,0.545 0.478,0.761 0.205,0.216 0.447,0.387 0.727,0.515 0.28,0.127 0.586,0.191 0.918,0.191zm-0.017 0.607c-0.443,0 -0.846,-0.08 -1.209,-0.241 -0.363,-0.161 -0.674,-0.378 -0.935,-0.653 -0.26,-0.274 -0.461,-0.592 -0.602,-0.955 -0.141,-0.363 -0.212,-0.744 -0.212,-1.143l0 -0.016c0,-0.399 0.072,-0.782 0.216,-1.148 0.144,-0.365 0.347,-0.685 0.607,-0.959 0.26,-0.274 0.573,-0.493 0.939,-0.657 0.366,-0.163 0.77,-0.245 1.213,-0.245 0.443,0 0.846,0.081 1.209,0.241 0.363,0.161 0.675,0.378 0.935,0.653 0.261,0.274 0.461,0.592 0.603,0.955 0.141,0.363 0.212,0.744 0.212,1.143 0.005,0.006 0.005,0.011 0,0.017 0,0.398 -0.073,0.78 -0.217,1.146 -0.144,0.366 -0.346,0.686 -0.606,0.96 -0.261,0.274 -0.574,0.493 -0.939,0.656 -0.366,0.164 -0.77,0.246 -1.214,0.246zm4.363 -5.917l0.615 0 3.665 4.662 0 -4.662 0.64 0 0 5.817 -0.524 0 -3.756 -4.77 0 4.77 -0.64 0 0 -5.817zm8.568 5.9c-0.465,0 -0.891,-0.076 -1.276,-0.229 -0.385,-0.152 -0.752,-0.386 -1.101,-0.702l0.407 -0.482c0.305,0.277 0.613,0.484 0.923,0.619 0.31,0.136 0.667,0.204 1.072,0.204 0.393,0 0.708,-0.093 0.943,-0.278 0.236,-0.186 0.353,-0.423 0.353,-0.711l0 -0.016c0,-0.133 -0.022,-0.254 -0.066,-0.362 -0.044,-0.108 -0.122,-0.206 -0.234,-0.295 -0.111,-0.089 -0.265,-0.169 -0.461,-0.241 -0.198,-0.072 -0.449,-0.141 -0.755,-0.208 -0.333,-0.072 -0.623,-0.155 -0.87,-0.249 -0.248,-0.094 -0.451,-0.208 -0.612,-0.341 -0.161,-0.133 -0.281,-0.288 -0.359,-0.465 -0.078,-0.177 -0.116,-0.385 -0.116,-0.623l0 -0.017c0,-0.227 0.047,-0.438 0.141,-0.631 0.094,-0.194 0.227,-0.362 0.399,-0.503 0.172,-0.141 0.374,-0.252 0.607,-0.333 0.232,-0.08 0.487,-0.12 0.764,-0.12 0.426,0 0.799,0.059 1.118,0.178 0.318,0.12 0.627,0.298 0.926,0.536l-0.382 0.507c-0.271,-0.221 -0.544,-0.382 -0.819,-0.482 -0.274,-0.099 -0.561,-0.149 -0.859,-0.149 -0.383,0 -0.685,0.09 -0.906,0.27 -0.222,0.18 -0.333,0.403 -0.333,0.669l0 0.017c0,0.138 0.022,0.261 0.067,0.369 0.044,0.108 0.124,0.208 0.241,0.3 0.116,0.091 0.277,0.174 0.482,0.249 0.205,0.075 0.468,0.145 0.789,0.212 0.648,0.144 1.126,0.343 1.434,0.598 0.307,0.255 0.461,0.604 0.461,1.047l0 0.017c0,0.249 -0.05,0.475 -0.148,0.677 -0.099,0.202 -0.234,0.375 -0.407,0.519 -0.174,0.144 -0.381,0.255 -0.625,0.333 -0.244,0.078 -0.51,0.116 -0.798,0.116zm5.643 0.008c-0.36,0 -0.689,-0.054 -0.985,-0.162 -0.297,-0.107 -0.552,-0.268 -0.765,-0.482 -0.213,-0.213 -0.378,-0.477 -0.494,-0.793 -0.117,-0.316 -0.175,-0.679 -0.175,-1.089l0 -3.382 0.657 0 0 3.341c0,0.631 0.156,1.116 0.47,1.454 0.312,0.338 0.749,0.507 1.308,0.507 0.537,0 0.964,-0.161 1.28,-0.482 0.316,-0.321 0.474,-0.801 0.474,-1.438l0 -3.382 0.656 0 0 3.332c0,0.427 -0.058,0.801 -0.174,1.122 -0.117,0.321 -0.282,0.59 -0.495,0.806 -0.213,0.216 -0.468,0.379 -0.764,0.486 -0.297,0.108 -0.628,0.162 -0.993,0.162zm3.98 -5.908l0.657 0 0 5.21 3.274 0 0 0.607 -3.931 0 0 -5.817zm6.681 0.607l-1.952 0 0 -0.607 4.562 0 0 0.607 -1.953 0 0 5.21 -0.657 0 0 -5.21zm6.565 4.703c0.333,0 0.639,-0.062 0.919,-0.187 0.28,-0.125 0.519,-0.295 0.719,-0.511 0.199,-0.216 0.356,-0.468 0.469,-0.756 0.114,-0.288 0.171,-0.599 0.171,-0.931l0 -0.016c0,-0.333 -0.057,-0.644 -0.171,-0.935 -0.113,-0.291 -0.273,-0.545 -0.478,-0.761 -0.204,-0.216 -0.447,-0.388 -0.727,-0.515 -0.28,-0.127 -0.586,-0.191 -0.918,-0.191 -0.332,0 -0.639,0.062 -0.918,0.187 -0.28,0.124 -0.52,0.295 -0.719,0.511 -0.2,0.216 -0.356,0.468 -0.469,0.756 -0.114,0.288 -0.171,0.598 -0.171,0.931l0 0.017c0,0.332 0.057,0.644 0.171,0.934 0.113,0.291 0.272,0.545 0.477,0.761 0.205,0.216 0.447,0.387 0.727,0.515 0.28,0.127 0.586,0.191 0.918,0.191zm-0.016 0.607c-0.443,0 -0.846,-0.08 -1.209,-0.241 -0.363,-0.161 -0.675,-0.378 -0.935,-0.653 -0.26,-0.274 -0.461,-0.592 -0.602,-0.955 -0.142,-0.363 -0.212,-0.744 -0.212,-1.143l0 -0.016c0,-0.399 0.071,-0.782 0.216,-1.148 0.144,-0.365 0.346,-0.685 0.606,-0.959 0.261,-0.274 0.574,-0.493 0.939,-0.657 0.366,-0.163 0.771,-0.245 1.213,-0.245 0.444,0 0.847,0.081 1.21,0.241 0.362,0.161 0.674,0.378 0.935,0.653 0.26,0.274 0.461,0.592 0.602,0.955 0.141,0.363 0.212,0.744 0.212,1.143 0.006,0.006 0.006,0.011 0,0.017 0,0.398 -0.072,0.78 -0.216,1.146 -0.144,0.366 -0.346,0.686 -0.607,0.96 -0.26,0.274 -0.573,0.493 -0.939,0.656 -0.365,0.164 -0.77,0.246 -1.213,0.246zm6.81 -2.95c0.218,0 0.417,-0.028 0.6,-0.083 0.184,-0.056 0.342,-0.135 0.475,-0.237 0.134,-0.103 0.238,-0.227 0.313,-0.374 0.074,-0.147 0.112,-0.315 0.112,-0.503l0 -0.016c0,-0.361 -0.13,-0.642 -0.392,-0.844 -0.26,-0.202 -0.627,-0.303 -1.1,-0.303l-1.799 0 0 2.36 1.791 0zm-2.447 -2.967l2.501 0c0.36,0 0.68,0.051 0.96,0.154 0.28,0.102 0.511,0.245 0.694,0.428 0.144,0.144 0.255,0.312 0.332,0.506 0.078,0.195 0.116,0.408 0.116,0.641l0 0.016c0,0.244 -0.038,0.461 -0.116,0.652 -0.077,0.191 -0.187,0.358 -0.328,0.499 -0.141,0.141 -0.309,0.257 -0.503,0.349 -0.194,0.091 -0.404,0.156 -0.631,0.195l1.786 2.377 -0.806 0 -1.687 -2.26 -0.016 0 -1.646 0 0 2.26 -0.656 0 0 -5.817zm6.066 0l0.657 0 0 5.817 -0.657 0 0 -5.817zm6.133 3.689l-1.321 -2.966 -1.33 2.966 2.651 0zm-1.621 -3.73l0.615 0 2.651 5.858 -0.706 0 -0.681 -1.537 -3.167 0 -0.689 1.537 -0.674 0 2.651 -5.858zm14.452 5.949c-0.36,0 -0.688,-0.054 -0.985,-0.162 -0.296,-0.107 -0.551,-0.268 -0.764,-0.482 -0.214,-0.213 -0.379,-0.477 -0.495,-0.793 -0.116,-0.316 -0.174,-0.679 -0.174,-1.089l0 -3.382 0.656 0 0 3.341c0,0.631 0.157,1.116 0.47,1.454 0.313,0.338 0.749,0.507 1.308,0.507 0.538,0 0.964,-0.161 1.28,-0.482 0.316,-0.321 0.474,-0.801 0.474,-1.438l0 -3.382 0.656 0 0 3.332c0,0.427 -0.058,0.801 -0.174,1.122 -0.116,0.321 -0.281,0.59 -0.495,0.806 -0.213,0.216 -0.468,0.379 -0.764,0.486 -0.297,0.108 -0.628,0.162 -0.993,0.162zm6.428 -2.941c0.217,0 0.417,-0.028 0.6,-0.083 0.184,-0.056 0.342,-0.135 0.475,-0.237 0.134,-0.103 0.238,-0.227 0.313,-0.374 0.074,-0.147 0.112,-0.315 0.112,-0.503l0 -0.016c0,-0.361 -0.131,-0.642 -0.392,-0.844 -0.261,-0.202 -0.628,-0.303 -1.1,-0.303l-1.799 0 0 2.36 1.791 0zm-2.448 -2.967l2.502 0c0.36,0 0.68,0.051 0.96,0.154 0.279,0.102 0.511,0.245 0.693,0.428 0.144,0.144 0.255,0.312 0.333,0.506 0.077,0.195 0.116,0.408 0.116,0.641l0 0.016c0,0.244 -0.039,0.461 -0.116,0.652 -0.078,0.191 -0.187,0.358 -0.329,0.499 -0.141,0.141 -0.308,0.257 -0.502,0.349 -0.194,0.091 -0.405,0.156 -0.632,0.195l1.787 2.377 -0.806 0 -1.687 -2.26 -0.017 0 -1.645 0 0 2.26 -0.657 0 0 -5.817zm10.446 5.21c0.366,0 0.698,-0.058 0.997,-0.174 0.3,-0.117 0.553,-0.277 0.761,-0.482 0.208,-0.205 0.368,-0.448 0.482,-0.727 0.113,-0.28 0.17,-0.581 0.17,-0.902l0 -0.016c0,-0.322 -0.057,-0.623 -0.17,-0.902 -0.114,-0.28 -0.274,-0.524 -0.482,-0.732 -0.208,-0.207 -0.461,-0.371 -0.761,-0.49 -0.299,-0.119 -0.631,-0.178 -0.997,-0.178l-1.363 0 0 4.603 1.363 0zm-2.019 -5.21l2.019 0c0.455,0 0.872,0.074 1.251,0.22 0.379,0.147 0.706,0.351 0.98,0.611 0.275,0.26 0.487,0.567 0.636,0.918 0.15,0.352 0.225,0.733 0.225,1.143l0 0.017c0,0.409 -0.075,0.792 -0.225,1.146 -0.149,0.355 -0.361,0.662 -0.636,0.923 -0.274,0.26 -0.601,0.465 -0.98,0.614 -0.379,0.15 -0.796,0.225 -1.251,0.225l-2.019 0 0 -5.817zm6.557 0l0.656 0 0 5.817 -0.656 0 0 -5.817zm5.019 5.917c-0.421,0 -0.809,-0.078 -1.163,-0.233 -0.355,-0.155 -0.663,-0.367 -0.923,-0.636 -0.26,-0.269 -0.464,-0.586 -0.611,-0.951 -0.146,-0.366 -0.22,-0.756 -0.22,-1.172l0 -0.016c0,-0.411 0.074,-0.798 0.22,-1.164 0.147,-0.366 0.351,-0.685 0.611,-0.96 0.26,-0.274 0.571,-0.49 0.931,-0.648 0.36,-0.158 0.753,-0.237 1.18,-0.237 0.266,0 0.506,0.022 0.719,0.067 0.213,0.044 0.411,0.107 0.594,0.187 0.183,0.08 0.352,0.177 0.507,0.291 0.155,0.113 0.304,0.239 0.449,0.378l-0.449 0.482c-0.249,-0.233 -0.517,-0.424 -0.802,-0.574 -0.286,-0.149 -0.628,-0.224 -1.026,-0.224 -0.322,0 -0.62,0.061 -0.894,0.183 -0.274,0.122 -0.512,0.291 -0.715,0.506 -0.202,0.217 -0.359,0.47 -0.473,0.761 -0.114,0.291 -0.17,0.602 -0.17,0.935l0 0.017c0,0.337 0.056,0.652 0.17,0.943 0.114,0.291 0.271,0.544 0.473,0.76 0.203,0.216 0.441,0.386 0.715,0.511 0.274,0.125 0.572,0.187 0.894,0.187 0.398,0 0.742,-0.073 1.03,-0.22 0.288,-0.147 0.571,-0.353 0.848,-0.619l0.432 0.424c-0.15,0.155 -0.306,0.295 -0.47,0.419 -0.163,0.125 -0.339,0.232 -0.527,0.32 -0.189,0.089 -0.391,0.158 -0.607,0.208 -0.216,0.05 -0.457,0.075 -0.723,0.075zm7.246 -2.228l-1.321 -2.966 -1.33 2.966 2.651 0zm-1.62 -3.73l0.615 0 2.651 5.858 -0.707 0 -0.681 -1.537 -3.166 0 -0.69 1.537 -0.673 0 2.651 -5.858z"/>
   <path class="fil1" d="M2.5 105.323l30.311 0 -0.364 0.806 -29.947 0 0 -0.806zm214.689 0l30.311 0 0 0.806 -29.947 0 -0.364 -0.806z"/>
  </g>
 </g>
</svg>
