<?xml version="1.0" encoding="UTF-8"?>
<!DOCTYPE svg PUBLIC "-//W3C//DTD SVG 1.1//EN" "http://www.w3.org/Graphics/SVG/1.1/DTD/svg11.dtd">
<!-- Creator: CorelDRAW (Versão de avaliação) -->
<svg xmlns="http://www.w3.org/2000/svg" xml:space="preserve" width="150px" height="70px" version="1.1" style="shape-rendering:geometricPrecision; text-rendering:geometricPrecision; image-rendering:optimizeQuality; fill-rule:evenodd; clip-rule:evenodd"
viewBox="0 0 150 70"
 xmlns:xlink="http://www.w3.org/1999/xlink"
 xmlns:xodm="http://www.corel.com/coreldraw/odm/2003">
 <defs>
  <style type="text/css">
   <![CDATA[
    .fil2 {fill:white}
    .fil0 {fill:white;fill-rule:nonzero}
    .fil1 {fill:url(#id0);fill-rule:nonzero}
   ]]>
  </style>
  <linearGradient id="id0" gradientUnits="userSpaceOnUse" x1="55.87" y1="24.01" x2="91.63" y2="24.01">
   <stop offset="0" style="stop-opacity:1; stop-color:#B2B2B2"/>
   <stop offset="0.180392" style="stop-opacity:1; stop-color:#E6E6E6"/>
   <stop offset="0.458824" style="stop-opacity:1; stop-color:#7F7F7F"/>
   <stop offset="0.729412" style="stop-opacity:1; stop-color:#B6B6B6"/>
   <stop offset="1" style="stop-opacity:1; stop-color:#7F7F7F"/>
  </linearGradient>
 </defs>
 <g id="Camada_x0020_1">
  <metadata id="CorelCorpID_0Corel-Layer"/>
  <g id="_296156520">
   <path class="fil0" d="M3.45 57.88l4.17 0c3.12,0 5.17,-2.11 5.17,-4.89 0,-3.04 -2.51,-5.05 -5.64,-5.05l-3.7 0 0 9.94zm3.7 -9.25c2.11,0 3.69,1.62 3.69,4.38 0,2.56 -1.4,4.18 -3.22,4.18l-2.28 0 0 -8.56 1.81 0zm15.51 9.25l2.11 0 -5.01 -9.94 -1 0 -4.63 9.94 0.94 0 1.32 -2.78 4.89 0 1.38 2.78zm-3.84 -7.81l2.13 4.34 -4.22 0 2.09 -4.34zm8.73 0.55l7.41 7.26 0.71 0 0 -9.94 -0.71 0 0 7.27 -7.41 -7.27 -0.71 0 0 9.94 0.71 0 0 -7.26zm11.31 7.26l1.88 0 0 -9.94 -1.88 0 0 9.94zm5.05 0l7.72 0 0 -0.69 -5.83 0 0 -4.03 5.22 0 0 -0.7 -5.22 0 0 -3.83 5.68 0 0 -0.69 -7.57 0 0 9.94zm10.25 0l7.21 0 0 -0.69 -5.32 0 0 -9.25 -1.89 0 0 9.94zm22.17 0l2.11 0 -5.01 -9.94 -1 0 -4.63 9.94 0.94 0 1.32 -2.78 4.89 0 1.38 2.78zm-3.84 -7.81l2.13 4.34 -4.22 0 2.09 -4.34zm8.73 0.55l7.41 7.26 0.71 0 0 -9.94 -0.71 0 0 7.27 -7.41 -7.27 -0.71 0 0 9.94 0.71 0 0 -7.26zm11.31 7.26l4.16 0c3.13,0 5.18,-2.11 5.18,-4.89 0,-3.04 -2.52,-5.05 -5.65,-5.05l-3.69 0 0 9.94zm3.69 -9.25c2.11,0 3.7,1.62 3.7,4.38 0,2.56 -1.4,4.18 -3.23,4.18l-2.27 0 0 -8.56 1.8 0zm8.24 9.25l1.89 0 0 -4.34 1.54 0 3.13 4.34 2.01 0 -3.19 -4.48c1.57,-0.37 2.54,-1.3 2.54,-2.66 0,-1.75 -1.62,-2.8 -4.06,-2.8l-3.86 0 0 9.94zm3.37 -9.25c1.57,0 2.62,0.73 2.62,2.11 0,1.42 -1.03,2.11 -2.6,2.11l-1.5 0 0 -4.22 1.48 0zm14.88 9.25l2.11 0 -5.01 -9.94 -0.99 0 -4.63 9.94 0.93 0 1.32 -2.78 4.89 0 1.38 2.78zm-3.83 -7.81l2.13 4.34 -4.22 0 2.09 -4.34zm8.02 7.81l4.16 0c3.12,0 5.17,-2.11 5.17,-4.89 0,-3.04 -2.51,-5.05 -5.64,-5.05l-3.69 0 0 9.94zm3.69 -9.25c2.11,0 3.69,1.62 3.69,4.38 0,2.56 -1.4,4.18 -3.22,4.18l-2.28 0 0 -8.56 1.81 0zm8.24 9.25l7.72 0 0 -0.69 -5.83 0 0 -4.03 5.22 0 0 -0.7 -5.22 0 0 -3.83 5.68 0 0 -0.69 -7.57 0 0 9.94z"/>
   <path class="fil1" d="M55.87 11.05l0 -7.54 13.7 0c3.77,0 7.2,1.54 9.68,4.02 1.25,1.26 2.27,2.75 2.96,4.41 -0.65,-0.2 -1.31,-0.36 -1.99,-0.47l-0.44 -0.07c-0.52,-0.92 -1.16,-1.75 -1.9,-2.49 -2.13,-2.14 -5.07,-3.46 -8.31,-3.46l-11.76 0 0 5.6 -1.94 0zm28.22 26.28l5.6 0 0 -11.76c0,-3.23 -1.32,-6.17 -3.45,-8.3 -0.92,-0.92 -1.98,-1.68 -3.14,-2.26 0.11,0.72 0.17,1.45 0.17,2.2 0,3.77 -1.54,7.19 -4.02,9.68 -2.48,2.48 -5.91,4.02 -9.68,4.02l-3.4 0 0 6.42 11.83 0 0 1.94 -13.77 0 0 -8.36 -8.36 0 0 -13.77 1.94 0 0 11.83 11.76 0c3.24,0 6.18,-1.32 8.31,-3.45 2.13,-2.14 3.45,-5.08 3.45,-8.31 0,-1.04 -0.13,-2.05 -0.39,-3.01 -0.96,-0.25 -1.97,-0.39 -3.01,-0.39 -3.23,0 -6.17,1.32 -8.3,3.46 -2.13,2.13 -3.46,5.07 -3.46,8.3l0 2.81 -1.94 0 0 -2.81c0,-3.77 1.54,-7.19 4.03,-9.68 2.48,-2.48 5.9,-4.02 9.67,-4.02 3.77,0 7.2,1.54 9.68,4.02 2.48,2.49 4.02,5.91 4.02,9.68l0 13.7 -7.54 0 0 -1.94z"/>
   <path class="fil0" d="M26.87 65.19l-0.77 -1.74 -0.78 1.74 1.55 0zm-0.95 -2.18l0.36 0 1.55 3.42 -0.41 0 -0.4 -0.9 -1.85 0 -0.4 0.9 -0.39 0 1.54 -3.42zm32.21 0.02l2.45 0 0 0.35 -2.07 0 0 1.17 1.85 0 0 0.34 -1.85 0 0 1.2 2.1 0 0 0.34 -2.48 0 0 -3.4zm6.62 3.46c-0.24,0 -0.47,-0.05 -0.68,-0.14 -0.2,-0.09 -0.38,-0.21 -0.54,-0.37 -0.15,-0.16 -0.27,-0.34 -0.35,-0.56 -0.09,-0.21 -0.13,-0.44 -0.13,-0.68l0 -0.01c0,-0.24 0.04,-0.47 0.13,-0.68 0.08,-0.21 0.2,-0.4 0.35,-0.56 0.16,-0.16 0.34,-0.29 0.55,-0.38 0.21,-0.09 0.44,-0.14 0.69,-0.14 0.15,0 0.29,0.02 0.42,0.04 0.12,0.03 0.24,0.07 0.34,0.11 0.11,0.05 0.21,0.11 0.3,0.17 0.09,0.07 0.18,0.14 0.26,0.22l-0.26 0.28c-0.15,-0.13 -0.3,-0.24 -0.47,-0.33 -0.17,-0.09 -0.37,-0.13 -0.6,-0.13 -0.19,0 -0.36,0.03 -0.52,0.1 -0.16,0.08 -0.3,0.17 -0.42,0.3 -0.12,0.13 -0.21,0.28 -0.27,0.45 -0.07,0.17 -0.1,0.35 -0.1,0.54l0 0.01c0,0.2 0.03,0.38 0.1,0.55 0.06,0.17 0.15,0.32 0.27,0.45 0.12,0.12 0.26,0.22 0.42,0.29 0.16,0.08 0.33,0.11 0.52,0.11 0.23,0 0.44,-0.04 0.6,-0.13 0.17,-0.08 0.34,-0.2 0.5,-0.36l0.25 0.25c-0.09,0.09 -0.18,0.17 -0.27,0.25 -0.1,0.07 -0.2,0.13 -0.31,0.18 -0.11,0.05 -0.23,0.1 -0.36,0.12 -0.12,0.03 -0.26,0.05 -0.42,0.05zm38.35 -0.01c-0.26,0 -0.47,-0.06 -0.64,-0.17 -0.16,-0.12 -0.3,-0.26 -0.41,-0.43l0.28 -0.24c0.1,0.16 0.21,0.28 0.33,0.36 0.12,0.08 0.27,0.12 0.44,0.12 0.19,0 0.35,-0.06 0.48,-0.2 0.13,-0.14 0.19,-0.34 0.19,-0.61l0 -2.28 0.38 0 0 2.27c0,0.2 -0.03,0.38 -0.08,0.53 -0.05,0.15 -0.13,0.27 -0.22,0.37 -0.2,0.19 -0.45,0.28 -0.75,0.28zm9.69 -4.45l0.39 0.18 -0.55 0.52 -0.3 0 0.46 -0.7zm-0.5 1l0.38 0 0 3.4 -0.38 0 0 -3.4zm-82.61 3.05c0.21,0 0.41,-0.04 0.58,-0.11 0.18,-0.06 0.33,-0.16 0.45,-0.28 0.12,-0.12 0.21,-0.26 0.28,-0.42 0.06,-0.17 0.1,-0.34 0.1,-0.53l0 -0.01c0,-0.19 -0.04,-0.36 -0.1,-0.53 -0.07,-0.16 -0.16,-0.3 -0.28,-0.42 -0.12,-0.12 -0.27,-0.22 -0.45,-0.29 -0.17,-0.07 -0.37,-0.1 -0.58,-0.1l-0.79 0 0 2.69 0.79 0zm-1.18 -3.05l1.18 0c0.27,0 0.51,0.05 0.73,0.13 0.22,0.09 0.41,0.21 0.57,0.36 0.16,0.15 0.29,0.33 0.38,0.53 0.08,0.21 0.13,0.43 0.13,0.67l0 0.01c0,0.24 -0.05,0.46 -0.13,0.67 -0.09,0.21 -0.22,0.39 -0.38,0.54 -0.16,0.15 -0.35,0.27 -0.57,0.36 -0.22,0.09 -0.46,0.13 -0.73,0.13l-1.18 0 0 -3.4zm3.51 0l0.42 0 1.21 2.93 1.21 -2.93 0.42 0 -1.46 3.42 -0.34 0 -1.46 -3.42zm5.51 3.1c0.2,0 0.38,-0.03 0.54,-0.11 0.16,-0.07 0.3,-0.17 0.42,-0.29 0.12,-0.13 0.21,-0.28 0.27,-0.45 0.07,-0.16 0.1,-0.35 0.1,-0.54l0 -0.01c0,-0.19 -0.03,-0.38 -0.1,-0.55 -0.06,-0.16 -0.16,-0.31 -0.27,-0.44 -0.12,-0.12 -0.27,-0.23 -0.43,-0.3 -0.16,-0.07 -0.34,-0.11 -0.54,-0.11 -0.19,0 -0.37,0.03 -0.53,0.11 -0.17,0.07 -0.31,0.17 -0.42,0.3 -0.12,0.12 -0.21,0.27 -0.28,0.44 -0.06,0.17 -0.1,0.35 -0.1,0.54l0 0.01c0,0.2 0.04,0.38 0.1,0.55 0.07,0.17 0.16,0.31 0.28,0.44 0.12,0.13 0.26,0.23 0.43,0.3 0.16,0.08 0.34,0.11 0.53,0.11zm-0.01 0.36c-0.25,0 -0.49,-0.05 -0.7,-0.14 -0.21,-0.1 -0.4,-0.22 -0.55,-0.38 -0.15,-0.16 -0.27,-0.35 -0.35,-0.56 -0.08,-0.21 -0.12,-0.44 -0.12,-0.67l0 -0.01c0,-0.23 0.04,-0.46 0.12,-0.67 0.09,-0.21 0.2,-0.4 0.36,-0.56 0.15,-0.16 0.33,-0.29 0.54,-0.38 0.22,-0.1 0.45,-0.15 0.71,-0.15 0.26,0 0.5,0.05 0.71,0.14 0.21,0.1 0.39,0.23 0.55,0.39 0.15,0.16 0.27,0.34 0.35,0.55 0.08,0.22 0.12,0.44 0.12,0.67 0.01,0 0.01,0.01 0,0.01 0,0.23 -0.04,0.46 -0.12,0.67 -0.09,0.21 -0.21,0.4 -0.36,0.56 -0.15,0.16 -0.33,0.29 -0.55,0.38 -0.21,0.1 -0.45,0.15 -0.71,0.15zm4.1 0c-0.24,0 -0.47,-0.05 -0.67,-0.14 -0.21,-0.09 -0.39,-0.21 -0.54,-0.37 -0.16,-0.16 -0.27,-0.34 -0.36,-0.56 -0.09,-0.21 -0.13,-0.44 -0.13,-0.68l0 -0.01c0,-0.24 0.04,-0.47 0.13,-0.68 0.09,-0.21 0.2,-0.4 0.36,-0.56 0.15,-0.16 0.33,-0.29 0.54,-0.38 0.21,-0.09 0.44,-0.14 0.69,-0.14 0.16,0 0.3,0.02 0.42,0.04 0.12,0.03 0.24,0.07 0.35,0.11 0.1,0.05 0.2,0.11 0.29,0.17 0.09,0.07 0.18,0.14 0.27,0.22l-0.27 0.28c-0.14,-0.13 -0.3,-0.24 -0.47,-0.33 -0.16,-0.09 -0.36,-0.13 -0.59,-0.13 -0.19,0 -0.37,0.03 -0.53,0.1 -0.16,0.08 -0.3,0.17 -0.41,0.3 -0.12,0.13 -0.21,0.28 -0.28,0.45 -0.07,0.17 -0.1,0.35 -0.1,0.54l0 0.01c0,0.2 0.03,0.38 0.1,0.55 0.07,0.17 0.16,0.32 0.28,0.45 0.11,0.12 0.25,0.22 0.41,0.29 0.16,0.08 0.34,0.11 0.53,0.11 0.23,0 0.43,-0.04 0.6,-0.13 0.17,-0.08 0.33,-0.2 0.49,-0.36l0.25 0.25c-0.08,0.09 -0.17,0.17 -0.27,0.25 -0.1,0.07 -0.2,0.13 -0.31,0.18 -0.11,0.05 -0.23,0.1 -0.35,0.12 -0.13,0.03 -0.27,0.05 -0.43,0.05zm4.24 -1.3l-0.77 -1.74 -0.78 1.74 1.55 0zm-0.95 -2.18l0.36 0 1.55 3.42 -0.41 0 -0.4 -0.9 -1.85 0 -0.4 0.9 -0.4 0 1.55 -3.42zm4.13 3.48c-0.24,0 -0.47,-0.05 -0.68,-0.14 -0.2,-0.09 -0.38,-0.21 -0.54,-0.37 -0.15,-0.16 -0.27,-0.34 -0.35,-0.56 -0.09,-0.21 -0.13,-0.44 -0.13,-0.68l0 -0.01c0,-0.24 0.04,-0.47 0.13,-0.68 0.08,-0.21 0.2,-0.4 0.35,-0.56 0.16,-0.16 0.34,-0.29 0.55,-0.38 0.21,-0.09 0.44,-0.14 0.69,-0.14 0.15,0 0.29,0.02 0.42,0.04 0.12,0.03 0.24,0.07 0.34,0.11 0.11,0.05 0.21,0.11 0.3,0.17 0.09,0.07 0.18,0.14 0.26,0.22l-0.26 0.28c-0.15,-0.13 -0.3,-0.24 -0.47,-0.33 -0.17,-0.09 -0.37,-0.13 -0.6,-0.13 -0.19,0 -0.36,0.03 -0.52,0.1 -0.16,0.08 -0.3,0.17 -0.42,0.3 -0.12,0.13 -0.21,0.28 -0.27,0.45 -0.07,0.17 -0.1,0.35 -0.1,0.54l0 0.01c0,0.2 0.03,0.38 0.1,0.55 0.06,0.17 0.15,0.32 0.27,0.45 0.12,0.12 0.26,0.22 0.42,0.29 0.16,0.08 0.33,0.11 0.52,0.11 0.23,0 0.44,-0.04 0.6,-0.13 0.17,-0.08 0.34,-0.2 0.5,-0.36l0.25 0.25c-0.09,0.09 -0.18,0.17 -0.27,0.25 -0.1,0.07 -0.2,0.13 -0.31,0.18 -0.11,0.05 -0.23,0.1 -0.36,0.12 -0.12,0.03 -0.26,0.05 -0.42,0.05zm2.06 -3.46l0.39 0 0 3.4 -0.39 0 0 -3.4zm3.59 2.16l-0.78 -1.74 -0.77 1.74 1.55 0zm-0.95 -2.18l0.36 0 1.55 3.42 -0.42 0 -0.39 -0.9 -1.85 0 -0.41 0.9 -0.39 0 1.55 -3.42zm14.64 3.12c0.19,0 0.37,-0.03 0.53,-0.11 0.17,-0.07 0.31,-0.17 0.42,-0.29 0.12,-0.13 0.21,-0.28 0.28,-0.45 0.06,-0.16 0.1,-0.35 0.1,-0.54l0 -0.01c0,-0.19 -0.04,-0.38 -0.1,-0.55 -0.07,-0.16 -0.16,-0.31 -0.28,-0.44 -0.12,-0.12 -0.26,-0.23 -0.43,-0.3 -0.16,-0.07 -0.34,-0.11 -0.53,-0.11 -0.2,0 -0.37,0.03 -0.54,0.11 -0.16,0.07 -0.3,0.17 -0.42,0.3 -0.11,0.12 -0.21,0.27 -0.27,0.44 -0.07,0.17 -0.1,0.35 -0.1,0.54l0 0.01c0,0.2 0.03,0.38 0.1,0.55 0.06,0.17 0.16,0.31 0.28,0.44 0.12,0.13 0.26,0.23 0.42,0.3 0.16,0.08 0.34,0.11 0.54,0.11zm-0.01 0.36c-0.26,0 -0.5,-0.05 -0.71,-0.14 -0.21,-0.1 -0.39,-0.22 -0.54,-0.38 -0.16,-0.16 -0.27,-0.35 -0.36,-0.56 -0.08,-0.21 -0.12,-0.44 -0.12,-0.67l0 -0.01c0,-0.23 0.04,-0.46 0.13,-0.67 0.08,-0.21 0.2,-0.4 0.35,-0.56 0.15,-0.16 0.34,-0.29 0.55,-0.38 0.21,-0.1 0.45,-0.15 0.71,-0.15 0.26,0 0.49,0.05 0.7,0.14 0.22,0.1 0.4,0.23 0.55,0.39 0.15,0.16 0.27,0.34 0.35,0.55 0.08,0.22 0.13,0.44 0.13,0.67 0,0 0,0.01 0,0.01 0,0.23 -0.05,0.46 -0.13,0.67 -0.09,0.21 -0.2,0.4 -0.35,0.56 -0.16,0.16 -0.34,0.29 -0.55,0.38 -0.22,0.1 -0.45,0.15 -0.71,0.15zm2.55 -3.46l0.36 0 2.14 2.73 0 -2.73 0.37 0 0 3.4 -0.31 0 -2.19 -2.79 0 2.79 -0.37 0 0 -3.4zm5 3.45c-0.27,0 -0.52,-0.05 -0.74,-0.14 -0.23,-0.08 -0.44,-0.22 -0.65,-0.4l0.24 -0.29c0.18,0.16 0.36,0.29 0.54,0.37 0.18,0.07 0.39,0.11 0.62,0.11 0.23,0 0.42,-0.05 0.56,-0.16 0.13,-0.11 0.2,-0.25 0.2,-0.41l0 -0.01c0,-0.08 -0.01,-0.15 -0.04,-0.21 -0.02,-0.07 -0.07,-0.13 -0.13,-0.18 -0.07,-0.05 -0.16,-0.1 -0.27,-0.14 -0.12,-0.04 -0.27,-0.08 -0.44,-0.12 -0.2,-0.04 -0.37,-0.09 -0.51,-0.14 -0.15,-0.06 -0.27,-0.13 -0.36,-0.2 -0.09,-0.08 -0.16,-0.17 -0.21,-0.27 -0.04,-0.11 -0.07,-0.23 -0.07,-0.37l0 -0.01c0,-0.13 0.03,-0.25 0.09,-0.37 0.05,-0.11 0.13,-0.21 0.23,-0.29 0.1,-0.08 0.22,-0.15 0.35,-0.2 0.14,-0.04 0.29,-0.07 0.45,-0.07 0.25,0 0.47,0.04 0.65,0.11 0.19,0.07 0.37,0.17 0.54,0.31l-0.22 0.3c-0.16,-0.13 -0.32,-0.23 -0.48,-0.28 -0.16,-0.06 -0.33,-0.09 -0.5,-0.09 -0.22,0 -0.4,0.05 -0.53,0.16 -0.13,0.1 -0.19,0.23 -0.19,0.39l0 0.01c0,0.08 0.01,0.15 0.04,0.21 0.02,0.07 0.07,0.12 0.14,0.18 0.06,0.05 0.16,0.1 0.28,0.14 0.12,0.05 0.27,0.09 0.46,0.13 0.38,0.08 0.66,0.2 0.84,0.35 0.17,0.14 0.26,0.35 0.26,0.61l0 0.01c0,0.14 -0.02,0.27 -0.08,0.39 -0.06,0.12 -0.14,0.22 -0.24,0.31 -0.1,0.08 -0.22,0.14 -0.36,0.19 -0.15,0.05 -0.3,0.07 -0.47,0.07zm3.3 0c-0.21,0 -0.41,-0.03 -0.58,-0.09 -0.17,-0.06 -0.32,-0.16 -0.45,-0.28 -0.12,-0.13 -0.22,-0.28 -0.29,-0.47 -0.06,-0.18 -0.1,-0.39 -0.1,-0.63l0 -1.98 0.39 0 0 1.95c0,0.37 0.09,0.66 0.27,0.85 0.18,0.2 0.44,0.3 0.77,0.3 0.31,0 0.56,-0.09 0.74,-0.28 0.19,-0.19 0.28,-0.47 0.28,-0.84l0 -1.98 0.38 0 0 1.95c0,0.25 -0.03,0.47 -0.1,0.65 -0.07,0.19 -0.16,0.35 -0.29,0.48 -0.12,0.12 -0.27,0.22 -0.44,0.28 -0.18,0.06 -0.37,0.09 -0.58,0.09zm2.32 -3.45l0.38 0 0 3.05 1.92 0 0 0.35 -2.3 0 0 -3.4zm3.9 0.36l-1.14 0 0 -0.36 2.67 0 0 0.36 -1.14 0 0 3.04 -0.39 0 0 -3.04zm3.84 2.74c0.19,0 0.37,-0.03 0.53,-0.11 0.17,-0.07 0.31,-0.17 0.42,-0.29 0.12,-0.13 0.21,-0.28 0.28,-0.45 0.06,-0.16 0.1,-0.35 0.1,-0.54l0 -0.01c0,-0.19 -0.04,-0.38 -0.1,-0.55 -0.07,-0.16 -0.16,-0.31 -0.28,-0.44 -0.12,-0.12 -0.26,-0.23 -0.43,-0.3 -0.16,-0.07 -0.34,-0.11 -0.53,-0.11 -0.2,0 -0.38,0.03 -0.54,0.11 -0.16,0.07 -0.3,0.17 -0.42,0.3 -0.12,0.12 -0.21,0.27 -0.27,0.44 -0.07,0.17 -0.1,0.35 -0.1,0.54l0 0.01c0,0.2 0.03,0.38 0.1,0.55 0.06,0.17 0.16,0.31 0.28,0.44 0.12,0.13 0.26,0.23 0.42,0.3 0.16,0.08 0.34,0.11 0.54,0.11zm-0.01 0.36c-0.26,0 -0.5,-0.05 -0.71,-0.14 -0.21,-0.1 -0.39,-0.22 -0.54,-0.38 -0.16,-0.16 -0.27,-0.35 -0.36,-0.56 -0.08,-0.21 -0.12,-0.44 -0.12,-0.67l0 -0.01c0,-0.23 0.04,-0.46 0.13,-0.67 0.08,-0.21 0.2,-0.4 0.35,-0.56 0.15,-0.16 0.33,-0.29 0.55,-0.38 0.21,-0.1 0.45,-0.15 0.71,-0.15 0.26,0 0.49,0.05 0.7,0.14 0.21,0.1 0.4,0.23 0.55,0.39 0.15,0.16 0.27,0.34 0.35,0.55 0.08,0.22 0.12,0.44 0.12,0.67 0.01,0 0.01,0.01 0,0.01 0,0.23 -0.04,0.46 -0.12,0.67 -0.09,0.21 -0.2,0.4 -0.36,0.56 -0.15,0.16 -0.33,0.29 -0.54,0.38 -0.22,0.1 -0.45,0.15 -0.71,0.15zm3.97 -1.73c0.13,0 0.25,-0.01 0.35,-0.04 0.11,-0.04 0.2,-0.08 0.28,-0.14 0.08,-0.06 0.14,-0.13 0.19,-0.22 0.04,-0.09 0.06,-0.18 0.06,-0.29l0 -0.01c0,-0.21 -0.08,-0.38 -0.23,-0.5 -0.15,-0.11 -0.37,-0.17 -0.64,-0.17l-1.05 0 0 1.37 1.04 0zm-1.43 -1.73l1.47 0c0.21,0 0.39,0.03 0.56,0.09 0.16,0.06 0.3,0.15 0.4,0.25 0.09,0.09 0.15,0.19 0.2,0.3 0.04,0.11 0.06,0.24 0.06,0.37l0 0.01c0,0.14 -0.02,0.27 -0.06,0.38 -0.05,0.11 -0.11,0.21 -0.2,0.29 -0.08,0.09 -0.18,0.15 -0.29,0.21 -0.11,0.05 -0.24,0.09 -0.37,0.11l1.05 1.39 -0.48 0 -0.98 -1.32 -0.01 0 -0.96 0 0 1.32 -0.39 0 0 -3.4zm3.55 0l0.38 0 0 3.4 -0.38 0 0 -3.4zm3.58 2.16l-0.77 -1.74 -0.78 1.74 1.55 0zm-0.95 -2.18l0.36 0 1.55 3.42 -0.41 0 -0.4 -0.9 -1.85 0 -0.4 0.9 -0.4 0 1.55 -3.42zm8.44 3.47c-0.21,0 -0.4,-0.03 -0.57,-0.09 -0.17,-0.06 -0.32,-0.16 -0.45,-0.28 -0.12,-0.13 -0.22,-0.28 -0.29,-0.47 -0.07,-0.18 -0.1,-0.39 -0.1,-0.63l0 -1.98 0.38 0 0 1.95c0,0.37 0.1,0.66 0.28,0.85 0.18,0.2 0.44,0.3 0.76,0.3 0.32,0 0.57,-0.09 0.75,-0.28 0.19,-0.19 0.28,-0.47 0.28,-0.84l0 -1.98 0.38 0 0 1.95c0,0.25 -0.03,0.47 -0.1,0.65 -0.07,0.19 -0.17,0.35 -0.29,0.48 -0.12,0.12 -0.27,0.22 -0.45,0.28 -0.17,0.06 -0.36,0.09 -0.58,0.09zm3.76 -1.72c0.12,0 0.24,-0.01 0.35,-0.04 0.11,-0.04 0.2,-0.08 0.28,-0.14 0.07,-0.06 0.13,-0.13 0.18,-0.22 0.04,-0.09 0.06,-0.18 0.06,-0.29l0 -0.01c0,-0.21 -0.07,-0.38 -0.22,-0.5 -0.16,-0.11 -0.37,-0.17 -0.65,-0.17l-1.05 0 0 1.37 1.05 0zm-1.43 -1.73l1.46 0c0.21,0 0.4,0.03 0.56,0.09 0.16,0.06 0.3,0.15 0.4,0.25 0.09,0.09 0.15,0.19 0.2,0.3 0.04,0.11 0.07,0.24 0.07,0.37l0 0.01c0,0.14 -0.03,0.27 -0.07,0.38 -0.05,0.11 -0.11,0.21 -0.19,0.29 -0.08,0.09 -0.18,0.15 -0.3,0.21 -0.11,0.05 -0.23,0.09 -0.37,0.11l1.05 1.39 -0.47 0 -0.99 -1.32 -0.01 0 -0.96 0 0 1.32 -0.38 0 0 -3.4zm6.1 3.05c0.21,0 0.41,-0.04 0.58,-0.11 0.18,-0.06 0.32,-0.16 0.45,-0.28 0.12,-0.12 0.21,-0.26 0.28,-0.42 0.06,-0.17 0.1,-0.34 0.1,-0.53l0 -0.01c0,-0.19 -0.04,-0.36 -0.1,-0.53 -0.07,-0.16 -0.16,-0.3 -0.28,-0.42 -0.13,-0.12 -0.27,-0.22 -0.45,-0.29 -0.17,-0.07 -0.37,-0.1 -0.58,-0.1l-0.8 0 0 2.69 0.8 0zm-1.18 -3.05l1.18 0c0.26,0 0.51,0.05 0.73,0.13 0.22,0.09 0.41,0.21 0.57,0.36 0.16,0.15 0.29,0.33 0.37,0.53 0.09,0.21 0.14,0.43 0.14,0.67l0 0.01c0,0.24 -0.05,0.46 -0.14,0.67 -0.08,0.21 -0.21,0.39 -0.37,0.54 -0.16,0.15 -0.35,0.27 -0.57,0.36 -0.22,0.09 -0.47,0.13 -0.73,0.13l-1.18 0 0 -3.4zm3.83 0l0.38 0 0 3.4 -0.38 0 0 -3.4zm2.93 3.46c-0.25,0 -0.47,-0.05 -0.68,-0.14 -0.21,-0.09 -0.39,-0.21 -0.54,-0.37 -0.15,-0.16 -0.27,-0.34 -0.35,-0.56 -0.09,-0.21 -0.13,-0.44 -0.13,-0.68l0 -0.01c0,-0.24 0.04,-0.47 0.13,-0.68 0.08,-0.21 0.2,-0.4 0.35,-0.56 0.15,-0.16 0.34,-0.29 0.55,-0.38 0.21,-0.09 0.44,-0.14 0.69,-0.14 0.15,0 0.29,0.02 0.41,0.04 0.13,0.03 0.25,0.07 0.35,0.11 0.11,0.05 0.21,0.11 0.3,0.17 0.09,0.07 0.18,0.14 0.26,0.22l-0.26 0.28c-0.15,-0.13 -0.3,-0.24 -0.47,-0.33 -0.17,-0.09 -0.37,-0.13 -0.6,-0.13 -0.19,0 -0.36,0.03 -0.52,0.1 -0.16,0.08 -0.3,0.17 -0.42,0.3 -0.12,0.13 -0.21,0.28 -0.27,0.45 -0.07,0.17 -0.11,0.35 -0.11,0.54l0 0.01c0,0.2 0.04,0.38 0.11,0.55 0.06,0.17 0.15,0.32 0.27,0.45 0.12,0.12 0.26,0.22 0.42,0.29 0.16,0.08 0.33,0.11 0.52,0.11 0.23,0 0.43,-0.04 0.6,-0.13 0.17,-0.08 0.34,-0.2 0.5,-0.36l0.25 0.25c-0.09,0.09 -0.18,0.17 -0.27,0.25 -0.1,0.07 -0.2,0.13 -0.31,0.18 -0.11,0.05 -0.23,0.1 -0.36,0.12 -0.12,0.03 -0.26,0.05 -0.42,0.05zm4.23 -1.3l-0.77 -1.74 -0.78 1.74 1.55 0zm-0.94 -2.18l0.36 0 1.54 3.42 -0.41 0 -0.4 -0.9 -1.85 0 -0.4 0.9 -0.39 0 1.55 -3.42z"/>
   <path class="fil2" d="M3.45 64.39l17.71 0 -0.22 0.47 -17.49 0 0 -0.47zm125.39 0l17.71 0 0 0.47 -17.49 0 -0.22 -0.47z"/>
  </g>
 </g>
</svg>
