<?xml version="1.0" encoding="UTF-8"?>
<!DOCTYPE svg PUBLIC "-//W3C//DTD SVG 1.1//EN" "http://www.w3.org/Graphics/SVG/1.1/DTD/svg11.dtd">
<!-- Creator: CorelDRAW (Versão de avaliação) -->
<svg xmlns="http://www.w3.org/2000/svg" xml:space="preserve" width="500px" height="220px" version="1.1" style="shape-rendering:geometricPrecision; text-rendering:geometricPrecision; image-rendering:optimizeQuality; fill-rule:evenodd; clip-rule:evenodd"
viewBox="0 0 500 220"
 xmlns:xlink="http://www.w3.org/1999/xlink"
 xmlns:xodm="http://www.corel.com/coreldraw/odm/2003">
 <defs>
  <style type="text/css">
   <![CDATA[
    .fil2 {fill:white}
    .fil0 {fill:white;fill-rule:nonzero}
    .fil1 {fill:url(#id0);fill-rule:nonzero}
   ]]>
  </style>
  <linearGradient id="id0" gradientUnits="userSpaceOnUse" x1="184.5" y1="72.36" x2="306.95" y2="72.35">
   <stop offset="0" style="stop-opacity:1; stop-color:#B2B2B2"/>
   <stop offset="0.180392" style="stop-opacity:1; stop-color:#E6E6E6"/>
   <stop offset="0.458824" style="stop-opacity:1; stop-color:#7F7F7F"/>
   <stop offset="0.729412" style="stop-opacity:1; stop-color:#B6B6B6"/>
   <stop offset="1" style="stop-opacity:1; stop-color:#7F7F7F"/>
  </linearGradient>
 </defs>
 <g id="Camada_x0020_1">
  <metadata id="CorelCorpID_0Corel-Layer"/>
  <g id="_232447880">
   <path class="fil0" d="M5 188.37l14.25 0c10.7,0 17.72,-7.23 17.72,-16.75 0,-10.43 -8.61,-17.31 -19.32,-17.31l-12.65 0 0 34.06zm12.65 -31.7c7.23,0 12.65,5.56 12.65,15.02 0,8.75 -4.8,14.32 -11.05,14.32l-7.79 0 0 -29.34 6.19 0zm53.11 31.7l7.23 0 -17.17 -34.06 -3.41 0 -15.85 34.06 3.2 0 4.52 -9.52 16.75 0 4.73 9.52zm-13.14 -26.76l7.3 14.87 -14.46 0 7.16 -14.87zm29.89 1.87l25.37 24.89 2.44 0 0 -34.06 -2.44 0 0 24.88 -25.37 -24.88 -2.43 0 0 34.06 2.43 0 0 -24.89zm38.72 24.89l6.46 0 0 -34.06 -6.46 0 0 34.06zm17.31 0l26.41 0 0 -2.36 -19.95 0 0 -13.84 17.87 0 0 -2.36 -17.87 0 0 -13.14 19.47 0 0 -2.36 -25.93 0 0 34.06zm35.1 0l24.68 0 0 -2.36 -18.21 0 0 -31.7 -6.47 0 0 34.06zm75.91 0l7.23 0 -17.17 -34.06 -3.4 0 -15.85 34.06 3.19 0 4.52 -9.52 16.76 0 4.72 9.52zm-13.14 -26.76l7.3 14.87 -14.46 0 7.16 -14.87zm29.89 1.87l25.38 24.89 2.43 0 0 -34.06 -2.43 0 0 24.88 -25.38 -24.88 -2.43 0 0 34.06 2.43 0 0 -24.89zm38.72 24.89l14.26 0c10.7,0 17.72,-7.23 17.72,-16.75 0,-10.43 -8.62,-17.31 -19.32,-17.31l-12.66 0 0 34.06zm12.66 -31.7c7.23,0 12.65,5.56 12.65,15.02 0,8.75 -4.8,14.32 -11.05,14.32l-7.79 0 0 -29.34 6.19 0zm28.22 31.7l6.46 0 0 -14.88 5.29 0 10.7 14.88 6.88 0 -10.91 -15.36c5.35,-1.25 8.69,-4.45 8.69,-9.11 0,-5.98 -5.56,-9.59 -13.9,-9.59l-13.21 0 0 34.06zm11.54 -31.7c5.35,0 8.96,2.5 8.96,7.23 0,4.87 -3.54,7.23 -8.89,7.23l-5.15 0 0 -14.46 5.08 0zm50.95 31.7l7.23 0 -17.17 -34.06 -3.41 0 -15.85 34.06 3.2 0 4.52 -9.52 16.75 0 4.73 9.52zm-13.14 -26.76l7.3 14.87 -14.46 0 7.16 -14.87zm27.46 26.76l14.25 0c10.71,0 17.73,-7.23 17.73,-16.75 0,-10.43 -8.62,-17.31 -19.33,-17.31l-12.65 0 0 34.06zm12.65 -31.7c7.23,0 12.65,5.56 12.65,15.02 0,8.75 -4.79,14.32 -11.05,14.32l-7.78 0 0 -29.34 6.18 0zm28.22 31.7l26.42 0 0 -2.36 -19.95 0 0 -13.84 17.86 0 0 -2.36 -17.86 0 0 -13.14 19.46 0 0 -2.36 -25.93 0 0 34.06z"/>
   <path class="fil1" d="M184.5 28l0 -25.83 46.92 0c12.9,0 24.63,5.28 33.13,13.78 4.3,4.29 7.77,9.41 10.15,15.09 -2.22,-0.7 -4.5,-1.25 -6.81,-1.62l-1.51 -0.25c-1.79,-3.12 -3.99,-5.99 -6.52,-8.52 -7.31,-7.3 -17.37,-11.84 -28.44,-11.84l-40.27 0 0 19.19 -6.65 0zm96.62 89.97l19.19 0 0 -40.26c0,-11.07 -4.53,-21.14 -11.83,-28.44 -3.13,-3.13 -6.76,-5.74 -10.76,-7.71 0.4,2.45 0.61,4.96 0.61,7.52 0,12.91 -5.28,24.64 -13.78,33.14 -8.5,8.5 -20.23,13.78 -33.13,13.78l-11.65 0 0 21.97 40.5 0 0 6.65 -47.14 0 0 -28.62 -28.63 0 0 -47.15 6.65 0 0 40.5 40.27 0c11.07,0 21.13,-4.53 28.44,-11.83 7.29,-7.3 11.83,-17.37 11.83,-28.44 0,-3.55 -0.47,-7.01 -1.35,-10.3 -3.29,-0.87 -6.74,-1.34 -10.3,-1.34 -11.07,0 -21.14,4.53 -28.44,11.83 -7.3,7.3 -11.83,17.37 -11.83,28.44l0 9.64 -6.64 0 0 -9.64c0,-12.91 5.27,-24.64 13.77,-33.14 8.51,-8.5 20.23,-13.78 33.14,-13.78 12.9,0 24.63,5.28 33.14,13.78 8.5,8.5 13.77,20.23 13.77,33.14l0 46.91 -25.83 0 0 -6.65z"/>
   <path class="fil0" d="M85.18 213.38l-2.64 -5.94 -2.66 5.94 5.3 0zm-3.24 -7.47l1.23 0 5.3 11.72 -1.41 0 -1.36 -3.07 -6.33 0 -1.38 3.07 -1.35 0 5.3 -11.72zm110.28 0.09l8.41 0 0 1.18 -7.1 0 0 4 6.35 0 0 1.18 -6.35 0 0 4.09 7.18 0 0 1.18 -8.49 0 0 -11.63zm22.68 11.83c-0.84,0 -1.61,-0.16 -2.32,-0.47 -0.71,-0.31 -1.33,-0.73 -1.85,-1.27 -0.52,-0.53 -0.92,-1.17 -1.22,-1.9 -0.29,-0.73 -0.44,-1.51 -0.44,-2.34l0 -0.04c0,-0.82 0.15,-1.59 0.44,-2.32 0.3,-0.73 0.7,-1.37 1.22,-1.92 0.52,-0.55 1.15,-0.98 1.86,-1.3 0.72,-0.32 1.51,-0.47 2.37,-0.47 0.53,0 1.01,0.04 1.43,0.13 0.43,0.09 0.83,0.21 1.19,0.37 0.37,0.16 0.7,0.36 1.01,0.59 0.32,0.22 0.61,0.47 0.9,0.75l-0.9 0.97c-0.49,-0.47 -1.03,-0.85 -1.6,-1.15 -0.57,-0.3 -1.25,-0.45 -2.05,-0.45 -0.64,0 -1.24,0.12 -1.79,0.37 -0.55,0.24 -1.02,0.58 -1.43,1.01 -0.4,0.43 -0.72,0.94 -0.94,1.52 -0.23,0.58 -0.35,1.21 -0.35,1.87l0 0.03c0,0.68 0.12,1.31 0.35,1.89 0.22,0.58 0.54,1.09 0.94,1.52 0.41,0.43 0.88,0.77 1.43,1.02 0.55,0.25 1.15,0.38 1.79,0.38 0.8,0 1.48,-0.15 2.06,-0.44 0.58,-0.3 1.14,-0.71 1.69,-1.24l0.87 0.85c-0.3,0.31 -0.61,0.59 -0.94,0.84 -0.33,0.24 -0.68,0.46 -1.06,0.63 -0.37,0.18 -0.78,0.32 -1.21,0.42 -0.43,0.1 -0.91,0.15 -1.45,0.15zm131.32 -0.03c-0.87,0 -1.6,-0.2 -2.17,-0.59 -0.58,-0.38 -1.05,-0.88 -1.42,-1.47l0.95 -0.82c0.35,0.54 0.73,0.96 1.14,1.24 0.4,0.28 0.91,0.42 1.52,0.42 0.65,0 1.2,-0.23 1.63,-0.7 0.43,-0.47 0.65,-1.17 0.65,-2.09l0 -7.79 1.31 0 0 7.77c0,0.69 -0.1,1.29 -0.28,1.8 -0.19,0.51 -0.44,0.93 -0.77,1.26 -0.66,0.65 -1.52,0.97 -2.56,0.97zm33.19 -15.24l1.33 0.61 -1.88 1.78 -1.03 0 1.58 -2.39zm-1.71 3.44l1.31 0 0 11.63 -1.31 0 0 -11.63zm-282.89 10.42c0.73,0 1.39,-0.12 1.99,-0.35 0.6,-0.23 1.11,-0.56 1.52,-0.97 0.42,-0.41 0.74,-0.89 0.97,-1.45 0.22,-0.56 0.34,-1.16 0.34,-1.8l0 -0.04c0,-0.64 -0.12,-1.24 -0.34,-1.8 -0.23,-0.56 -0.55,-1.05 -0.97,-1.46 -0.41,-0.42 -0.92,-0.75 -1.52,-0.98 -0.6,-0.24 -1.26,-0.36 -1.99,-0.36l-2.73 0 0 9.21 2.73 0zm-4.04 -10.42l4.04 0c0.91,0 1.74,0.14 2.5,0.44 0.76,0.29 1.41,0.7 1.96,1.22 0.55,0.52 0.97,1.13 1.27,1.84 0.3,0.7 0.45,1.46 0.45,2.28l0 0.03c0,0.82 -0.15,1.59 -0.45,2.3 -0.3,0.71 -0.72,1.32 -1.27,1.84 -0.55,0.52 -1.2,0.93 -1.96,1.23 -0.76,0.3 -1.59,0.45 -2.5,0.45l-4.04 0 0 -11.63zm12 0l1.46 0 4.14 10.02 4.15 -10.02 1.42 0 -5.01 11.71 -1.16 0 -5 -11.71zm18.9 10.62c0.66,0 1.27,-0.13 1.83,-0.38 0.56,-0.25 1.04,-0.59 1.44,-1.02 0.4,-0.43 0.71,-0.94 0.94,-1.51 0.23,-0.58 0.34,-1.2 0.34,-1.86l0 -0.04c0,-0.66 -0.11,-1.28 -0.34,-1.87 -0.23,-0.58 -0.55,-1.09 -0.96,-1.52 -0.41,-0.43 -0.89,-0.77 -1.45,-1.03 -0.56,-0.25 -1.17,-0.38 -1.84,-0.38 -0.66,0 -1.28,0.12 -1.83,0.37 -0.56,0.25 -1.04,0.59 -1.44,1.03 -0.4,0.43 -0.71,0.93 -0.94,1.51 -0.23,0.58 -0.34,1.2 -0.34,1.86l0 0.03c0,0.67 0.11,1.29 0.34,1.87 0.23,0.58 0.54,1.09 0.96,1.52 0.41,0.44 0.89,0.78 1.45,1.03 0.56,0.26 1.17,0.39 1.84,0.39zm-0.04 1.21c-0.88,0 -1.69,-0.16 -2.42,-0.48 -0.72,-0.32 -1.35,-0.76 -1.87,-1.31 -0.52,-0.54 -0.92,-1.18 -1.2,-1.91 -0.28,-0.72 -0.42,-1.48 -0.42,-2.28l0 -0.04c0,-0.79 0.14,-1.56 0.43,-2.29 0.29,-0.73 0.69,-1.37 1.21,-1.92 0.52,-0.55 1.15,-0.99 1.88,-1.31 0.73,-0.33 1.54,-0.49 2.43,-0.49 0.88,0 1.69,0.16 2.41,0.48 0.73,0.32 1.35,0.75 1.87,1.3 0.52,0.55 0.93,1.19 1.21,1.92 0.28,0.72 0.42,1.48 0.42,2.28 0.01,0.01 0.01,0.02 0,0.03 0,0.8 -0.14,1.57 -0.43,2.3 -0.29,0.73 -0.69,1.37 -1.21,1.92 -0.52,0.54 -1.15,0.98 -1.88,1.31 -0.73,0.33 -1.54,0.49 -2.43,0.49zm14.05 0c-0.85,0 -1.62,-0.16 -2.33,-0.47 -0.71,-0.31 -1.32,-0.73 -1.85,-1.27 -0.52,-0.53 -0.92,-1.17 -1.22,-1.9 -0.29,-0.73 -0.44,-1.51 -0.44,-2.34l0 -0.04c0,-0.82 0.15,-1.59 0.44,-2.32 0.3,-0.73 0.7,-1.37 1.22,-1.92 0.53,-0.55 1.15,-0.98 1.87,-1.3 0.72,-0.32 1.5,-0.47 2.36,-0.47 0.53,0 1.01,0.04 1.43,0.13 0.43,0.09 0.83,0.21 1.19,0.37 0.37,0.16 0.71,0.36 1.02,0.59 0.31,0.22 0.61,0.47 0.89,0.75l-0.89 0.97c-0.5,-0.47 -1.04,-0.85 -1.61,-1.15 -0.57,-0.3 -1.25,-0.45 -2.05,-0.45 -0.64,0 -1.24,0.12 -1.79,0.37 -0.55,0.24 -1.02,0.58 -1.43,1.01 -0.4,0.43 -0.72,0.94 -0.94,1.52 -0.23,0.58 -0.34,1.21 -0.34,1.87l0 0.03c0,0.68 0.11,1.31 0.34,1.89 0.22,0.58 0.54,1.09 0.94,1.52 0.41,0.43 0.88,0.77 1.43,1.02 0.55,0.25 1.15,0.38 1.79,0.38 0.8,0 1.48,-0.15 2.06,-0.44 0.58,-0.3 1.14,-0.71 1.7,-1.24l0.86 0.85c-0.3,0.31 -0.61,0.59 -0.94,0.84 -0.33,0.24 -0.68,0.46 -1.05,0.63 -0.38,0.18 -0.79,0.32 -1.22,0.42 -0.43,0.1 -0.91,0.15 -1.44,0.15zm14.49 -4.45l-2.64 -5.94 -2.66 5.94 5.3 0zm-3.24 -7.47l1.23 0 5.3 11.72 -1.41 0 -1.37 -3.07 -6.33 0 -1.38 3.07 -1.34 0 5.3 -11.72zm14.14 11.92c-0.84,0 -1.62,-0.16 -2.32,-0.47 -0.71,-0.31 -1.33,-0.73 -1.85,-1.27 -0.52,-0.53 -0.93,-1.17 -1.22,-1.9 -0.29,-0.73 -0.44,-1.51 -0.44,-2.34l0 -0.04c0,-0.82 0.15,-1.59 0.44,-2.32 0.29,-0.73 0.7,-1.37 1.22,-1.92 0.52,-0.55 1.14,-0.98 1.86,-1.3 0.72,-0.32 1.51,-0.47 2.36,-0.47 0.53,0 1.01,0.04 1.44,0.13 0.43,0.09 0.82,0.21 1.19,0.37 0.36,0.16 0.7,0.36 1.01,0.59 0.31,0.22 0.61,0.47 0.9,0.75l-0.9 0.97c-0.5,-0.47 -1.03,-0.85 -1.6,-1.15 -0.57,-0.3 -1.26,-0.45 -2.05,-0.45 -0.65,0 -1.24,0.12 -1.79,0.37 -0.55,0.24 -1.03,0.58 -1.43,1.01 -0.4,0.43 -0.72,0.94 -0.95,1.52 -0.22,0.58 -0.34,1.21 -0.34,1.87l0 0.03c0,0.68 0.12,1.31 0.34,1.89 0.23,0.58 0.55,1.09 0.95,1.52 0.4,0.43 0.88,0.77 1.43,1.02 0.55,0.25 1.14,0.38 1.79,0.38 0.79,0 1.48,-0.15 2.06,-0.44 0.57,-0.3 1.14,-0.71 1.69,-1.24l0.87 0.85c-0.3,0.31 -0.62,0.59 -0.94,0.84 -0.33,0.24 -0.68,0.46 -1.06,0.63 -0.37,0.18 -0.78,0.32 -1.21,0.42 -0.43,0.1 -0.92,0.15 -1.45,0.15zm7.07 -11.83l1.31 0 0 11.63 -1.31 0 0 -11.63zm12.26 7.38l-2.64 -5.94 -2.66 5.94 5.3 0zm-3.24 -7.47l1.23 0 5.3 11.72 -1.41 0 -1.36 -3.07 -6.34 0 -1.38 3.07 -1.34 0 5.3 -11.72zm50.13 10.71c0.66,0 1.27,-0.13 1.83,-0.38 0.56,-0.25 1.04,-0.59 1.44,-1.02 0.4,-0.43 0.71,-0.94 0.94,-1.51 0.23,-0.58 0.34,-1.2 0.34,-1.86l0 -0.04c0,-0.66 -0.11,-1.28 -0.34,-1.87 -0.23,-0.58 -0.55,-1.09 -0.96,-1.52 -0.41,-0.43 -0.89,-0.77 -1.45,-1.03 -0.56,-0.25 -1.17,-0.38 -1.84,-0.38 -0.66,0 -1.27,0.12 -1.83,0.37 -0.56,0.25 -1.04,0.59 -1.44,1.03 -0.4,0.43 -0.71,0.93 -0.94,1.51 -0.23,0.58 -0.34,1.2 -0.34,1.86l0 0.03c0,0.67 0.11,1.29 0.34,1.87 0.23,0.58 0.55,1.09 0.96,1.52 0.41,0.44 0.89,0.78 1.45,1.03 0.56,0.26 1.17,0.39 1.84,0.39zm-0.04 1.21c-0.88,0 -1.69,-0.16 -2.41,-0.48 -0.73,-0.32 -1.35,-0.76 -1.87,-1.31 -0.53,-0.54 -0.93,-1.18 -1.21,-1.91 -0.28,-0.72 -0.42,-1.48 -0.42,-2.28l0 -0.04c0,-0.79 0.14,-1.56 0.43,-2.29 0.29,-0.73 0.69,-1.37 1.21,-1.92 0.52,-0.55 1.15,-0.99 1.88,-1.31 0.73,-0.33 1.54,-0.49 2.43,-0.49 0.88,0 1.69,0.16 2.42,0.48 0.72,0.32 1.35,0.75 1.86,1.3 0.53,0.55 0.93,1.19 1.21,1.92 0.28,0.72 0.42,1.48 0.42,2.28 0.02,0.01 0.02,0.02 0,0.03 0,0.8 -0.14,1.57 -0.43,2.3 -0.29,0.73 -0.69,1.37 -1.21,1.92 -0.52,0.54 -1.15,0.98 -1.88,1.31 -0.73,0.33 -1.54,0.49 -2.43,0.49zm8.73 -11.83l1.23 0 7.33 9.32 0 -9.32 1.28 0 0 11.63 -1.05 0 -7.51 -9.54 0 9.54 -1.28 0 0 -11.63zm17.14 11.8c-0.93,0 -1.79,-0.16 -2.56,-0.46 -0.77,-0.3 -1.5,-0.77 -2.2,-1.4l0.82 -0.97c0.61,0.55 1.22,0.97 1.84,1.24 0.62,0.27 1.34,0.41 2.15,0.41 0.78,0 1.41,-0.19 1.88,-0.56 0.47,-0.37 0.71,-0.84 0.71,-1.42l0 -0.03c0,-0.27 -0.05,-0.51 -0.14,-0.73 -0.08,-0.21 -0.24,-0.41 -0.46,-0.59 -0.23,-0.17 -0.53,-0.34 -0.93,-0.48 -0.39,-0.14 -0.89,-0.28 -1.51,-0.42 -0.66,-0.14 -1.24,-0.3 -1.73,-0.49 -0.5,-0.19 -0.91,-0.42 -1.23,-0.69 -0.32,-0.26 -0.56,-0.57 -0.72,-0.93 -0.15,-0.35 -0.23,-0.77 -0.23,-1.24l0 -0.04c0,-0.45 0.1,-0.87 0.28,-1.26 0.19,-0.39 0.46,-0.72 0.8,-1 0.34,-0.29 0.75,-0.51 1.21,-0.67 0.47,-0.16 0.98,-0.24 1.53,-0.24 0.86,0 1.6,0.12 2.24,0.36 0.64,0.24 1.25,0.59 1.85,1.07l-0.76 1.01c-0.55,-0.44 -1.09,-0.76 -1.64,-0.96 -0.55,-0.2 -1.12,-0.3 -1.72,-0.3 -0.76,0 -1.37,0.18 -1.81,0.54 -0.45,0.36 -0.67,0.81 -0.67,1.34l0 0.03c0,0.28 0.05,0.53 0.14,0.74 0.08,0.22 0.25,0.42 0.48,0.6 0.23,0.18 0.55,0.35 0.96,0.5 0.41,0.15 0.94,0.29 1.58,0.42 1.3,0.29 2.25,0.69 2.87,1.2 0.61,0.51 0.92,1.21 0.92,2.09l0 0.04c0,0.5 -0.1,0.95 -0.3,1.35 -0.19,0.41 -0.46,0.75 -0.81,1.04 -0.35,0.29 -0.76,0.51 -1.25,0.66 -0.49,0.16 -1.02,0.24 -1.59,0.24zm11.28 0.01c-0.72,0 -1.38,-0.1 -1.97,-0.32 -0.59,-0.22 -1.1,-0.54 -1.53,-0.96 -0.42,-0.43 -0.75,-0.96 -0.99,-1.59 -0.23,-0.63 -0.35,-1.36 -0.35,-2.18l0 -6.76 1.32 0 0 6.68c0,1.26 0.31,2.23 0.94,2.91 0.62,0.67 1.49,1.01 2.61,1.01 1.08,0 1.93,-0.32 2.56,-0.96 0.63,-0.65 0.95,-1.6 0.95,-2.88l0 -6.76 1.31 0 0 6.66c0,0.85 -0.11,1.6 -0.35,2.24 -0.23,0.65 -0.56,1.18 -0.98,1.62 -0.43,0.43 -0.94,0.75 -1.53,0.97 -0.6,0.22 -1.26,0.32 -1.99,0.32zm7.96 -11.81l1.31 0 0 10.42 6.55 0 0 1.21 -7.86 0 0 -11.63zm13.36 1.21l-3.9 0 0 -1.21 9.12 0 0 1.21 -3.9 0 0 10.42 -1.32 0 0 -10.42zm13.13 9.41c0.67,0 1.28,-0.13 1.84,-0.38 0.56,-0.25 1.04,-0.59 1.44,-1.02 0.4,-0.43 0.71,-0.94 0.94,-1.51 0.23,-0.58 0.34,-1.2 0.34,-1.86l0 -0.04c0,-0.66 -0.11,-1.28 -0.34,-1.87 -0.23,-0.58 -0.55,-1.09 -0.96,-1.52 -0.41,-0.43 -0.89,-0.77 -1.45,-1.03 -0.56,-0.25 -1.17,-0.38 -1.84,-0.38 -0.66,0 -1.28,0.12 -1.84,0.37 -0.56,0.25 -1.03,0.59 -1.43,1.03 -0.4,0.43 -0.72,0.93 -0.94,1.51 -0.23,0.58 -0.34,1.2 -0.34,1.86l0 0.03c0,0.67 0.11,1.29 0.34,1.87 0.22,0.58 0.54,1.09 0.95,1.52 0.41,0.44 0.9,0.78 1.46,1.03 0.56,0.26 1.17,0.39 1.83,0.39zm-0.03 1.21c-0.88,0 -1.69,-0.16 -2.42,-0.48 -0.72,-0.32 -1.35,-0.76 -1.87,-1.31 -0.52,-0.54 -0.92,-1.18 -1.2,-1.91 -0.28,-0.72 -0.43,-1.48 -0.43,-2.28l0 -0.04c0,-0.79 0.15,-1.56 0.44,-2.29 0.28,-0.73 0.69,-1.37 1.21,-1.92 0.52,-0.55 1.15,-0.99 1.88,-1.31 0.73,-0.33 1.54,-0.49 2.42,-0.49 0.89,0 1.7,0.16 2.42,0.48 0.73,0.32 1.35,0.75 1.87,1.3 0.52,0.55 0.93,1.19 1.21,1.92 0.28,0.72 0.42,1.48 0.42,2.28 0.01,0.01 0.01,0.02 0,0.03 0,0.8 -0.14,1.57 -0.43,2.3 -0.29,0.73 -0.69,1.37 -1.21,1.92 -0.52,0.54 -1.15,0.98 -1.88,1.31 -0.73,0.33 -1.54,0.49 -2.43,0.49zm13.62 -5.9c0.44,0 0.84,-0.06 1.2,-0.17 0.37,-0.11 0.69,-0.27 0.95,-0.47 0.27,-0.21 0.48,-0.45 0.63,-0.75 0.15,-0.29 0.22,-0.63 0.22,-1l0 -0.04c0,-0.72 -0.26,-1.28 -0.78,-1.68 -0.52,-0.41 -1.26,-0.61 -2.2,-0.61l-3.6 0 0 4.72 3.58 0zm-4.89 -5.93l5 0c0.72,0 1.36,0.1 1.92,0.3 0.56,0.21 1.02,0.49 1.39,0.86 0.29,0.29 0.51,0.63 0.66,1.01 0.16,0.39 0.23,0.82 0.23,1.28l0 0.04c0,0.48 -0.07,0.92 -0.23,1.3 -0.15,0.38 -0.37,0.72 -0.65,1 -0.29,0.28 -0.62,0.51 -1.01,0.7 -0.39,0.18 -0.81,0.31 -1.26,0.39l3.57 4.75 -1.61 0 -3.38 -4.52 -0.03 0 -3.29 0 0 4.52 -1.31 0 0 -11.63zm12.13 0l1.31 0 0 11.63 -1.31 0 0 -11.63zm12.27 7.38l-2.65 -5.94 -2.66 5.94 5.31 0zm-3.25 -7.47l1.23 0 5.31 11.72 -1.42 0 -1.36 -3.07 -6.33 0 -1.38 3.07 -1.35 0 5.3 -11.72zm28.91 11.9c-0.72,0 -1.38,-0.1 -1.97,-0.32 -0.59,-0.22 -1.11,-0.54 -1.53,-0.96 -0.43,-0.43 -0.76,-0.96 -0.99,-1.59 -0.23,-0.63 -0.35,-1.36 -0.35,-2.18l0 -6.76 1.31 0 0 6.68c0,1.26 0.32,2.23 0.94,2.91 0.63,0.67 1.5,1.01 2.62,1.01 1.07,0 1.93,-0.32 2.56,-0.96 0.63,-0.65 0.95,-1.6 0.95,-2.88l0 -6.76 1.31 0 0 6.66c0,0.85 -0.12,1.6 -0.35,2.24 -0.23,0.65 -0.56,1.18 -0.99,1.62 -0.42,0.43 -0.93,0.75 -1.53,0.97 -0.59,0.22 -1.25,0.32 -1.98,0.32zm12.85 -5.88c0.44,0 0.84,-0.06 1.2,-0.17 0.37,-0.11 0.69,-0.27 0.95,-0.47 0.27,-0.21 0.48,-0.45 0.63,-0.75 0.15,-0.29 0.22,-0.63 0.22,-1l0 -0.04c0,-0.72 -0.26,-1.28 -0.78,-1.68 -0.52,-0.41 -1.26,-0.61 -2.2,-0.61l-3.6 0 0 4.72 3.58 0zm-4.89 -5.93l5 0c0.72,0 1.36,0.1 1.92,0.3 0.56,0.21 1.02,0.49 1.39,0.86 0.29,0.29 0.51,0.63 0.66,1.01 0.16,0.39 0.24,0.82 0.24,1.28l0 0.04c0,0.48 -0.08,0.92 -0.24,1.3 -0.15,0.38 -0.37,0.72 -0.65,1 -0.29,0.28 -0.62,0.51 -1.01,0.7 -0.39,0.18 -0.81,0.31 -1.26,0.39l3.57 4.75 -1.61 0 -3.37 -4.52 -0.04 0 -3.29 0 0 4.52 -1.31 0 0 -11.63zm20.89 10.42c0.73,0 1.4,-0.12 1.99,-0.35 0.6,-0.23 1.11,-0.56 1.53,-0.97 0.41,-0.41 0.73,-0.89 0.96,-1.45 0.23,-0.56 0.34,-1.16 0.34,-1.8l0 -0.04c0,-0.64 -0.11,-1.24 -0.34,-1.8 -0.23,-0.56 -0.55,-1.05 -0.96,-1.46 -0.42,-0.42 -0.93,-0.75 -1.53,-0.98 -0.59,-0.24 -1.26,-0.36 -1.99,-0.36l-2.73 0 0 9.21 2.73 0zm-4.04 -10.42l4.04 0c0.91,0 1.74,0.14 2.5,0.44 0.76,0.29 1.41,0.7 1.96,1.22 0.55,0.52 0.97,1.13 1.27,1.84 0.3,0.7 0.45,1.46 0.45,2.28l0 0.03c0,0.82 -0.15,1.59 -0.45,2.3 -0.3,0.71 -0.72,1.32 -1.27,1.84 -0.55,0.52 -1.2,0.93 -1.96,1.23 -0.76,0.3 -1.59,0.45 -2.5,0.45l-4.04 0 0 -11.63zm13.11 0l1.32 0 0 11.63 -1.32 0 0 -11.63zm10.04 11.83c-0.84,0 -1.61,-0.16 -2.32,-0.47 -0.71,-0.31 -1.33,-0.73 -1.85,-1.27 -0.52,-0.53 -0.93,-1.17 -1.22,-1.9 -0.29,-0.73 -0.44,-1.51 -0.44,-2.34l0 -0.04c0,-0.82 0.15,-1.59 0.44,-2.32 0.29,-0.73 0.7,-1.37 1.22,-1.92 0.52,-0.55 1.14,-0.98 1.86,-1.3 0.72,-0.32 1.51,-0.47 2.36,-0.47 0.54,0 1.01,0.04 1.44,0.13 0.43,0.09 0.82,0.21 1.19,0.37 0.37,0.16 0.7,0.36 1.01,0.59 0.31,0.22 0.61,0.47 0.9,0.75l-0.9 0.97c-0.5,-0.47 -1.03,-0.85 -1.6,-1.15 -0.57,-0.3 -1.26,-0.45 -2.05,-0.45 -0.65,0 -1.24,0.12 -1.79,0.37 -0.55,0.24 -1.03,0.58 -1.43,1.01 -0.4,0.43 -0.72,0.94 -0.95,1.52 -0.22,0.58 -0.34,1.21 -0.34,1.87l0 0.03c0,0.68 0.12,1.31 0.34,1.89 0.23,0.58 0.55,1.09 0.95,1.52 0.4,0.43 0.88,0.77 1.43,1.02 0.55,0.25 1.14,0.38 1.79,0.38 0.79,0 1.48,-0.15 2.06,-0.44 0.57,-0.3 1.14,-0.71 1.69,-1.24l0.87 0.85c-0.3,0.31 -0.62,0.59 -0.94,0.84 -0.33,0.24 -0.68,0.46 -1.06,0.63 -0.37,0.18 -0.78,0.32 -1.21,0.42 -0.43,0.1 -0.91,0.15 -1.45,0.15zm14.5 -4.45l-2.65 -5.94 -2.66 5.94 5.31 0zm-3.24 -7.47l1.22 0 5.31 11.72 -1.42 0 -1.36 -3.07 -6.33 0 -1.38 3.07 -1.35 0 5.31 -11.72z"/>
   <path class="fil2" d="M5 210.65l60.62 0 -0.73 1.61 -59.89 0 0 -1.61zm429.38 0l60.62 0 0 1.61 -59.89 0 -0.73 -1.61z"/>
  </g>
 </g>
</svg>
