<?xml version="1.0" encoding="UTF-8"?>
<!DOCTYPE svg PUBLIC "-//W3C//DTD SVG 1.1//EN" "http://www.w3.org/Graphics/SVG/1.1/DTD/svg11.dtd">
<!-- Creator: CorelDRAW (Versão de avaliação) -->
<svg xmlns="http://www.w3.org/2000/svg" xml:space="preserve" width="61px" height="61px" version="1.1" style="shape-rendering:geometricPrecision; text-rendering:geometricPrecision; image-rendering:optimizeQuality; fill-rule:evenodd; clip-rule:evenodd"
viewBox="0 0 57.022 57.023"
 xmlns:xlink="http://www.w3.org/1999/xlink"
 xmlns:xodm="http://www.corel.com/coreldraw/odm/2003">
 <defs>
  <style type="text/css">
   <![CDATA[
    .fil0 {fill:url(#id0);fill-rule:nonzero}
   ]]>
  </style>
  <linearGradient id="id0" gradientUnits="userSpaceOnUse" x1="0" y1="32.685" x2="57.022" y2="32.683">
   <stop offset="0" style="stop-opacity:1; stop-color:#B2B2B2"/>
   <stop offset="0.180392" style="stop-opacity:1; stop-color:#E6E6E6"/>
   <stop offset="0.458824" style="stop-opacity:1; stop-color:#7F7F7F"/>
   <stop offset="0.729412" style="stop-opacity:1; stop-color:#B6B6B6"/>
   <stop offset="1" style="stop-opacity:1; stop-color:#7F7F7F"/>
  </linearGradient>
 </defs>
 <g id="Camada_x0020_1">
  <metadata id="CorelCorpID_0Corel-Layer"/>
  <path class="fil0" d="M0 12.029l0 -12.029 21.847 0c6.009,0 11.472,2.457 15.43,6.416 2,2.001 3.617,4.385 4.727,7.029 -1.037,-0.328 -2.098,-0.581 -3.173,-0.756l-0.703 -0.114c-0.835,-1.456 -1.859,-2.791 -3.038,-3.971 -3.399,-3.399 -8.088,-5.509 -13.243,-5.509l-18.752 0 0 8.934 -3.095 0zm44.994 41.899l8.934 0 0 -18.753c0,-5.155 -2.11,-9.843 -5.51,-13.242 -1.454,-1.455 -3.145,-2.673 -5.008,-3.591 0.187,1.141 0.284,2.312 0.284,3.505 0,6.009 -2.458,11.472 -6.417,15.43 -3.958,3.959 -9.421,6.417 -15.43,6.417l-5.424 0 0 10.234 18.86 0 0 3.095 -21.954 0 0 -13.329 -13.329 0 0 -21.955 3.095 0 0 18.86 18.752 0c5.155,0 9.844,-2.11 13.243,-5.509 3.399,-3.399 5.509,-8.088 5.509,-13.243 0,-1.656 -0.218,-3.265 -0.626,-4.797 -1.533,-0.409 -3.141,-0.627 -4.797,-0.627 -5.156,0 -9.844,2.11 -13.243,5.51 -3.399,3.399 -5.51,8.087 -5.51,13.242l0 4.489 -3.094 0 0 -4.489c0,-6.009 2.457,-11.471 6.416,-15.43 3.959,-3.959 9.421,-6.416 15.43,-6.416 6.01,0 11.472,2.457 15.431,6.416 3.959,3.959 6.417,9.421 6.417,15.43l0 21.848 -12.029 0 0 -3.095z"/>
 </g>
</svg>
